<svg xmlns="http://www.w3.org/2000/svg" viewBox="0 0 146.35 142.79"><defs><style>.cls-1{fill:#c0cfea;}.cls-2{fill:#98b0db;}.cls-3{fill:#f59492;}.cls-4{fill:#241f5f;}.cls-5{fill:#2e2c7d;}.cls-6{fill:#515ca9;}.cls-7{fill:#28266d;}.cls-8{fill:#e0e6f4;}.cls-9{fill:#e7ebf5;}.cls-10{fill:#f3786f;}.cls-11{fill:#f3847f;}.cls-12{fill:#f7a09f;}.cls-13{fill:#4e59a7;}.cls-14{fill:#fff;}.cls-15{fill:#a1a4c1;}.cls-16{fill:#262264;}</style></defs><title>headerAsset 4</title><g id="Layer_2" data-name="Layer 2"><g id="Layer_1-2" data-name="Layer 1"><path class="cls-1" d="M112.23,10.83c-.75.69-1.67,1.18-2.47,1.83s-1.69,1.33-2.48,2.08c-.5.48-1.06.89-1.54,1.4a25.83,25.83,0,0,0-7,13.32,20.08,20.08,0,0,0-.46,2.88.82.82,0,0,1-.34.67c.09.08.18.18.28.26,1.46,1.19,2.85,2.46,4.21,3.76a50.48,50.48,0,0,1,3.49,3.82,16.84,16.84,0,0,1,1.82,2.38.13.13,0,0,1,.11.13s0,0,0,.07l.05,0v0l.46.49a13,13,0,0,0,1-2.31,1.89,1.89,0,0,1-.81-1.73c0-1.08,0-2.16,0-3.24,0-3.22,0-6.44,0-9.67a1.62,1.62,0,0,1,1.3-1.69,3.7,3.7,0,0,1,1-.1l7.65,0a4.1,4.1,0,0,1,.22-.41c1.94-2.68,3.85-5.38,6-7.92,1.66-2,3.32-3.91,5.15-5.73.64-.64,1.29-1.26,1.91-1.92.37-.4.85-.66,1.22-1.05a.35.35,0,0,1,.55,0c.23.22,0,.37-.11.52C132,10.33,130.45,12,129,13.75c-1,1.2-1.94,2.39-2.87,3.62-2,2.55-3.79,5.18-5.57,7.85.83,0,1.65,0,2.47,0a1.74,1.74,0,0,1,1.86,1.41,8.42,8.42,0,0,1-.12,2.6c0,2.22-.3,4.41-.45,6.62-.11,1.61-.18,3.23-.34,4.84a1.8,1.8,0,0,1-2,1.86c-1.24,0-2.46-.22-3.7-.17h-.54a48.29,48.29,0,0,0-5.24-.29,1.5,1.5,0,0,1-.3,0,.94.94,0,0,0-1.16.74c-.38,1.1-.88,2.17-1.18,3.3a1.68,1.68,0,0,0,.33.6,56.36,56.36,0,0,1,2.85,5c.43.86.85,1.74,1.28,2.61a1.68,1.68,0,0,0,.29-.24,8.38,8.38,0,0,1,4.23-3.07,23.91,23.91,0,0,1,6.2-1,52.69,52.69,0,0,1,8.7.25c0-.44.42-.63.64-.94a36.53,36.53,0,0,0,2.92-5.08c.15-.41.29-.82.45-1.23a35.91,35.91,0,0,0,1.88-6.82c.23-1.27.42-2.54.56-3.81a22.27,22.27,0,0,0,.2-2.45c0-3,.14-5.93.2-8.89,0-1.57,0-3.15.14-4.71.13-1.39,0-2.78.16-4.16.11-1.11,0-2.22.13-3.32.15-1.87.24-3.74.31-5.62a3.63,3.63,0,0,1,.1-.45A1.82,1.82,0,0,0,139.24.69q-2.82.57-5.63,1.27a83.27,83.27,0,0,0-12.2,4.1,58.3,58.3,0,0,0-8.89,4.66A1.25,1.25,0,0,1,112.23,10.83Z"/><path class="cls-2" d="M118.72,81a22.61,22.61,0,0,0,9.83-4.08,18.58,18.58,0,0,0,6.08-7.27,14,14,0,0,0,.86-2.31,18.87,18.87,0,0,1,3.26-6.27,24.73,24.73,0,0,1,2.69-3.18c.11-.11.24-.2.36-.3a7.17,7.17,0,0,1,1.72-1.84c.82-.74,1.57-1.55,2.46-2.23a.89.89,0,0,0,.32-1,1,1,0,0,0-.88-.64c-1.62-.27-3.23-.58-4.86-.78A4.2,4.2,0,0,1,140,51c-.67-.06-1.33-.1-2-.19-1.4-.19-2.79-.35-4.2-.45a52.69,52.69,0,0,0-8.7-.25,23.91,23.91,0,0,0-6.2,1,8.38,8.38,0,0,0-4.23,3.07,1.68,1.68,0,0,1-.29.24c.23.6.47,1.2.69,1.8a32.43,32.43,0,0,1,1.52,4.52.12.12,0,0,1,.07.16,2.66,2.66,0,0,1,.24.92c.06,0,.1.09.07.16l.09.44c.35.79.4,1.66.68,2.47,5.08-7.43,15.39-10,19.63-9.59-.06.19-.23.18-.38.18a8.73,8.73,0,0,0-1.45.2,31.14,31.14,0,0,0-10.6,3.85,19.35,19.35,0,0,0-6.09,5.62c-.24.36-.38.85-.86,1a1.76,1.76,0,0,0,0,.23,54.27,54.27,0,0,1,.91,9C118.91,77.25,118.79,79.13,118.72,81Z"/><path class="cls-2" d="M138.88,105.66h-20.8l-3.61,0c-1.87,0-3.74,0-5.61,0-2.65.08-5.3.06-7.94,0-1.45.06-2.9,0-4.34,0-1.66.06-3.31,0-5,0-.16,0-.31,0-.46,0H78.84c-.18,0-.36,0-.54,0l-.77,0h-5c-1.1,0-1.43.5-1,1.54.16.41.36.8.5,1.22a1.26,1.26,0,0,0,1.39,1c1.22,0,2.43,0,3.64,0a.79.79,0,0,1,.88.57c.22.57.49,1.14.76,1.69.13.28.2.49-.13.72a.82.82,0,0,0-.21.85,3.2,3.2,0,0,0,1.75,2.41c.33,0,.44.19.55.43.19.45.39.89.59,1.34.6,1.41,1.3,2.78,1.83,4.23a1.59,1.59,0,0,1,.15,1.84c-1.17,2.51-2.28,5.06-3.4,7.6a1.38,1.38,0,0,1-.68.78c.31.17.15.38.06.6-.55,1.25-1.09,2.5-1.65,3.75-.71,1.6-1.43,3.19-2.15,4.79a1.47,1.47,0,0,0-.06.14c-.2.51-.1.92.24,1.08a.78.78,0,0,0,1.06-.47c.28-.58.53-1.17.79-1.76l2.32-5.23c.47-1.06,1-2.11,1.4-3.19a1.59,1.59,0,0,1,.67-.77c-.39,0-.23-.23-.15-.4q1.23-2.79,2.47-5.56a.46.46,0,0,1,.27-.3c.57,1.29,1.14,2.57,1.72,3.86a.55.55,0,0,1,0,.38c.46.32.52.87.73,1.32.78,1.69,1.51,3.39,2.25,5.09.83,1.89,1.73,3.74,2.47,5.66l.47,1a.74.74,0,0,0,.35.39.86.86,0,0,0,.81,0c.25-.16.24-.43.22-.69s-.35-.68-.35-1.08a6.18,6.18,0,0,1-.68-1.3c-1.19-2.68-2.39-5.36-3.56-8A28.14,28.14,0,0,1,87.6,128c-.87-1.64-1.53-3.38-2.31-5.06a.59.59,0,0,1,0-.52,31.48,31.48,0,0,1,1.38-2.94,4.48,4.48,0,0,1,.44-1.15l1-2.19L90.78,110c.15-.35.29-.61.76-.6,2.3,0,4.59,0,6.89,0l9.76,0c1,0,1.94-.07,2.9.05,2-.11,4.1-.05,6.14,0H123c1.08,0,1.08,0,1.46,1l.14.36,4.51,10.15c.22.49.43,1,.68,1.47a.76.76,0,0,1-.06.73l-2.45,5.51c-1.11,2.5-2.2,5-3.31,7.5-.74,1.68-1.5,3.34-2.25,5-.13.29-.28.56-.07.88a.71.71,0,0,0,1.3-.12c.36-.71.68-1.45,1-2.18l2.82-6.36q1.73-3.93,3.47-7.85c.12-.28.26-.55.44-.91a16.31,16.31,0,0,1,1.17,2.44c1,2.18,2,4.38,2.92,6.58,1.13,2.54,2.25,5.09,3.38,7.63a4.55,4.55,0,0,0,.3.63.75.75,0,0,0,1,.39c.33-.16.43-.52.25-1s-.32-.76-.49-1.13c-1.15-2.57-2.3-5.13-3.44-7.7-1.34-3-2.66-6-4-9.05a1.55,1.55,0,0,1,0-1.39c1.72-3.86,3.42-7.73,5.13-11.59a2.37,2.37,0,0,0,.17-.36.78.78,0,0,1,.92-.6c.54,0,1.09,0,1.63,0a.87.87,0,0,0,.91-.77c.11-.56.21-1.11.3-1.67.14-.9-.17-1.25-1.06-1.27Zm-50.34,5.73a3.44,3.44,0,0,1-.33.93L85.69,118l-1.25,2.77a5,5,0,0,1-.8-1.57c-.61-1.38-1.3-2.73-1.81-4.16a1.83,1.83,0,0,1-.16-.26c-.71-1.57-1.42-3.14-2.11-4.72-.07-.18-.23-.36-.1-.58,1.3-.13,9.35-.08,10,.08A15.3,15.3,0,0,1,88.54,111.39Zm42.27,9.29c-.27-.09-.28-.2-.32-.29q-1.71-3.86-3.43-7.69c-.41-1-.84-1.88-1.25-2.83-.16-.38-.1-.45.3-.49H135a1.14,1.14,0,0,1,.74.12Z"/><path class="cls-3" d="M18.42,23.82a6.26,6.26,0,0,0-.3-3,3,3,0,0,0-2.47-1c-4.05,0-8.09.06-12.14,0a2.6,2.6,0,0,0-2.7,2.69c.06,3.43,0,6.86,0,10.29a2.41,2.41,0,0,0,3,2.59c.33-.05.67-.05,1-.07a.58.58,0,0,1,.3-.5,17,17,0,0,0,1.45-1.22,2.38,2.38,0,0,0,1-1.17c-.08-.07-.17-.13-.24-.2-.45-.44-.46-.46,0-.9s1-.89,1.49-1.34c.21-.19.4-.33.66-.08s.43.12.62,0a12.51,12.51,0,0,0,2.09-2.15.39.39,0,0,0,0-.6c-.16-.15-.11-.32,0-.48.49-.59,1-1.2,1.48-1.77.26-.29.43-.25.69.05A8.34,8.34,0,0,1,15,26a1.49,1.49,0,0,0,1.07-.51,17.2,17.2,0,0,1,1.44-1.25C17.8,24.06,18,23.79,18.42,23.82Zm-8.37-1.17c.21.05.62-.06.61.34s-.4.21-.63.23a4.84,4.84,0,0,0-4.62,4.14c0,.25-.07.5-.12.76a.21.21,0,0,1-.21.18.29.29,0,0,1-.26-.13.53.53,0,0,1-.06-.37A5.48,5.48,0,0,1,10.05,22.65Zm-.2,1.48c.56,0,.72.05.68.27-.07.41-.42.3-.68.32a3.22,3.22,0,0,0-3,2.89,3,3,0,0,1-.14.67c-.08.2-.25.15-.37,0s-.09-.34-.09-.51A3.89,3.89,0,0,1,9.85,24.13ZM7.62,28a2.54,2.54,0,0,1,2.26-2.5h.3a.2.2,0,0,1,.2.19.29.29,0,0,1-.09.28c-.15.13-.34.09-.52.13A1.84,1.84,0,0,0,8.22,27.9c0,.13,0,.26,0,.39a.23.23,0,0,1-.28.19.24.24,0,0,1-.27-.21A1.58,1.58,0,0,1,7.62,28Z"/><path class="cls-3" d="M30.41,15.93A2.32,2.32,0,0,0,32.55,17c1.91,0,3.81-.17,5.71-.23L41,16.69c2-.1,3.9-.18,5.85-.31a2.52,2.52,0,0,0,2.25-2.6c0-1.53,0-3,0-4.57,0-2,0-4,0-6a4.7,4.7,0,0,0-.35-2A3,3,0,0,0,45.74.07c0,.3-.17.46-.35.64-.54.54-1.08,1.07-1.61,1.62a2.74,2.74,0,0,1-.87.61c.36.25.74.48,1.08.74a6.13,6.13,0,0,1,2.59,3.89,3.27,3.27,0,0,1-.67,2.68,4.5,4.5,0,0,1-2.64,1.64l-1.62.38a1.9,1.9,0,0,0,.73.4l1.95.72c.25.09.51.19.47.52s-.34.4-.62.43a1.48,1.48,0,0,1-.47,0,9.63,9.63,0,0,0-1.61-.13c-.64,0-1.28-.09-1.91-.19a14,14,0,0,1-5.9-2.15,1.52,1.52,0,0,1-.5,1.07,21,21,0,0,0-2.09,2.23A2.1,2.1,0,0,1,30.41,15.93Z"/><path class="cls-3" d="M42.91,2.94a2.74,2.74,0,0,0,.87-.61c.53-.55,1.07-1.08,1.61-1.62.18-.18.39-.34.35-.64a3.55,3.55,0,0,0-1.3,0c-.8,0-1.6-.09-2.39-.07C38.86.1,35.67.1,32.47.07A2.6,2.6,0,0,0,29.93,2.7c0,2.32,0,4.64,0,7,0,.29,0,.57,0,.85l0,3.93a2.19,2.19,0,0,0,.47,1.5,2.1,2.1,0,0,0,1.29-.76,21,21,0,0,1,2.09-2.23,1.52,1.52,0,0,0,.5-1.07,10.24,10.24,0,0,1-1.35-1.58,6.44,6.44,0,0,1-.45-4.79,4,4,0,0,1,1.82-2.41,7.92,7.92,0,0,1,5.26-1A13.69,13.69,0,0,1,42.91,2.94Z"/><path class="cls-3" d="M18.42,23.82c-.38,0-.62.24-.87.43a17.2,17.2,0,0,0-1.44,1.25A1.49,1.49,0,0,1,15,26a2.77,2.77,0,0,1-.36,1.78,14.65,14.65,0,0,1-3.25,3.89c-1.12.94-2.35,1.51-3.81.71a2.38,2.38,0,0,1-1,1.17,17,17,0,0,1-1.45,1.22.58.58,0,0,0-.3.5,13.11,13.11,0,0,0,2.58-.1,4.6,4.6,0,0,1,.83,0c1.42,0,2.82-.21,4.24-.21,1.19,0,2.37-.14,3.55-.17a2.41,2.41,0,0,0,2.43-2.54c0-2.61,0-5.21,0-7.82C18.46,24.23,18.43,24,18.42,23.82Z"/><path class="cls-2" d="M113.82,132.79c0-.31,0-.62,0-.93q0-5.51,0-11a4.81,4.81,0,0,0-1,1.71,20.36,20.36,0,0,1-.74,2.16l-.16.77c.22.21.13.49.14.73,0,1.73,0,3.46,0,5.18a22.81,22.81,0,0,1,0,2.48c0,1.07,0,2.13,0,3.2a.5.5,0,0,1-.12.35.17.17,0,0,1-.17.13l-5.78,0-.12.17a1.68,1.68,0,0,1-.25,1.13c.34,0,.67,0,1,0h13.61c.62,0,.88-.41.65-1a.28.28,0,0,0-.28-.21H120c-1.86,0-3.72,0-5.57,0-.6,0-.62,0-.61-.61C113.8,135.57,113.81,134.18,113.82,132.79Z"/><path class="cls-4" d="M105.61,138.84a1.68,1.68,0,0,0,.25-1.13,3.56,3.56,0,0,1-.48.39,1.37,1.37,0,0,1-1.33,0c-.41-.22-.27-.61-.23-1a3.26,3.26,0,0,0-1,.51c-1.43.92-2.87,1.81-4.38,2.59h0l-.07.15a3.4,3.4,0,0,0-.86,1A3.47,3.47,0,0,0,100,142a8,8,0,0,0,3.7-1.59c.67-.48,1.17-1.14,1.84-1.62Z"/><path class="cls-5" d="M98.42,140.21c1.51-.78,3-1.67,4.38-2.59a3.26,3.26,0,0,1,1-.51l.41-1.19a1.05,1.05,0,0,1-.53-.53c-.53.23-1-.08-1.5-.15A26.67,26.67,0,0,0,100,137.3a11.64,11.64,0,0,0-1.32,1.81C98.59,139.47,98.33,139.8,98.42,140.21Z"/><path class="cls-6" d="M105.58,138.82c-.67.48-1.17,1.14-1.84,1.62A8,8,0,0,1,100,142a3.47,3.47,0,0,1-2.54-.69l0,0c-.22.35-.48.74-.21,1.13s.69.27,1.07.23a12.18,12.18,0,0,0,5.21-1.72A4.65,4.65,0,0,0,105.58,138.82Z"/><path class="cls-5" d="M98.36,140.35l.07-.15C98.35,140.23,98.37,140.3,98.36,140.35Z"/><path class="cls-7" d="M118.88,75.37a54.38,54.38,0,0,0-.91-9,1.76,1.76,0,0,1,0-.23,6.26,6.26,0,0,1-.25-1.29c-.28-.81-.33-1.68-.68-2.47l-.09-.44a1.11,1.11,0,0,0-.07-.16,2.41,2.41,0,0,0-.24-.92,1.11,1.11,0,0,0-.07-.16,33,33,0,0,0-1.52-4.53c-.22-.59-.46-1.19-.69-1.79-.43-.87-.85-1.75-1.28-2.61a56.36,56.36,0,0,0-2.85-5,1.72,1.72,0,0,1-.33-.59A18,18,0,0,1,108.39,44c-.15-.17-.31-.33-.46-.49l-.05-.05s0-.07,0-.08a.69.69,0,0,1-.11-.13,16.84,16.84,0,0,0-1.82-2.38c-1.11-1.32-2.25-2.61-3.49-3.82s-2.75-2.57-4.22-3.76L97.93,33c-1.54-1.14-3-2.34-4.65-3.37l-1.23-.79a14.93,14.93,0,0,0-.72,2.72,53.47,53.47,0,0,1,7.78,6c2.56,2.39,6.27,6.55,6.5,7.31-.4,0-.52-.4-.71-.64q-1.34-1.76-2.83-3.37a57,57,0,0,0-9.82-8.45,4.73,4.73,0,0,0-1-.61c-.46,1.69-.93,3.37-1.22,5.09.07,0,.15.06.21.1a50.39,50.39,0,0,1,10.47,9.89,48.57,48.57,0,0,1,6.36,10.67,17.22,17.22,0,0,1,1.12,2.95,22.25,22.25,0,0,1,1.21,3.73c.33,1.24.6,2.49.9,3.74a8.42,8.42,0,0,0,.08,1,48.85,48.85,0,0,1,.4,11.91c-.15,1.48-.41,2.94-.62,4.42a27.46,27.46,0,0,1,3.12-.53,10.19,10.19,0,0,1,2.07.11,2.34,2.34,0,0,1,1,.43,14.46,14.46,0,0,0,1.58,1.11,45.06,45.06,0,0,0,.66-4.62c0-.28.09-.56.13-.83C118.79,79.13,118.91,77.25,118.88,75.37ZM114.3,62.94c-.79-2.28-1.58-4.58-2.41-7C112.64,56.91,114.43,62.21,114.3,62.94Z"/><path class="cls-3" d="M93.59,5.08c0-.6,0-1.19,0-1.78a1.47,1.47,0,0,0-1.55-1.64c-2-.2-3.9-.34-5.86-.48-1.43-.1-2.87-.27-4.3-.4a7.23,7.23,0,0,0-.93,0,1.48,1.48,0,0,0-1.54,1.72c.15,1,.1,2.11.21,3.16.15,1.33.1,2.68.23,4s.09,2.78.28,4.16A1.26,1.26,0,0,0,81.08,15c0-.25.21-.32.38-.43a4.31,4.31,0,0,0,1.63-1.88l-.23,0c-1-.1-1.34-.43-1.34-1.48,0-.88,0-1.76,0-2.63,0-1.22,0-2.43,0-3.64a1.06,1.06,0,0,1,.89-1.18,2.84,2.84,0,0,1,.77,0c2,.22,3.94.45,5.92.58a1.29,1.29,0,0,1,1.2.7,1.29,1.29,0,0,1-.25,1.37c-.77,1-1.52,2.08-2.28,3.13a1.14,1.14,0,0,1-2,.06C84.91,8.5,84.1,7.39,83.3,6.29c-.17-.23-.51-.45-.2-.79s.41-.09.77.39C84.66,6.94,85.45,8,86.25,9c.37.5.6.51,1,0,.75-1,1.49-2,2.22-3.08.39-.57.26-.84-.4-.92l-4.14-.44c-.69-.07-1.38-.14-2.08-.17-.5,0-.62.08-.62.57q0,3.13,0,6.27c0,.48.11.58.61.6,1.28,0,2.57.22,3.86.19A2.84,2.84,0,0,1,87,11.5c1.14-1.14,2.25-2.3,3.33-3.5A.78.78,0,0,1,91,7.72c0-.67,0-1.34,0-2a2.41,2.41,0,0,1,0-.54.32.32,0,0,1,.34-.26.31.31,0,0,1,.34.25c0,.13,0,.26,0,.38.46.29.87.33,1.21-.2A.62.62,0,0,1,93.59,5.08Z"/><path class="cls-3" d="M83.09,12.69a4.31,4.31,0,0,1-1.63,1.88c-.17.11-.38.18-.38.43a.66.66,0,0,0,.57.16H92a1.5,1.5,0,0,0,1.62-1.58c0-2.78,0-5.56,0-8.34a.77.77,0,0,0,0-.15.62.62,0,0,0-.6.26c-.34.53-.75.49-1.21.2,0,.31,0,.62,0,.93,0,1.78,0,3.56,0,5.34a1.19,1.19,0,0,1-1.51,1.28,9.15,9.15,0,0,0-1.38-.1c-.49,0-1,0-1.47-.06C86,12.82,84.53,12.69,83.09,12.69Z"/><path class="cls-3" d="M108.65,36.7c0,1.08,0,2.16,0,3.24a1.89,1.89,0,0,0,.81,1.73A4,4,0,0,0,111,42a3.59,3.59,0,0,1,1.56.14,48.29,48.29,0,0,1,5.24.29h.54c1.24,0,2.46.18,3.7.17a1.8,1.8,0,0,0,2-1.86c.16-1.61.23-3.23.34-4.84.15-2.21.43-4.4.45-6.62a8.34,8.34,0,0,0-1.85.84,2.14,2.14,0,0,1-1,.26A6.84,6.84,0,0,1,122.1,32a11.41,11.41,0,0,1-.6,2.07,47.11,47.11,0,0,1-2.84,5.46,4,4,0,0,1-.79,1,1.61,1.61,0,0,1-2.12,0,3.22,3.22,0,0,1-.67-.84c-1-1.56-1.79-3.18-2.64-4.8a6.36,6.36,0,0,0-1.71.8A7.18,7.18,0,0,1,108.65,36.7Z"/><path class="cls-3" d="M121.94,30.36a2.14,2.14,0,0,0,1-.26,8.34,8.34,0,0,1,1.85-.84,8.42,8.42,0,0,0,.12-2.6,1.74,1.74,0,0,0-1.86-1.41c-.82,0-1.64,0-2.47,0h-2l-7.65,0a3.7,3.7,0,0,0-1,.1,1.62,1.62,0,0,0-1.3,1.69c0,3.23,0,6.45,0,9.67a7.18,7.18,0,0,0,2.08-.92,6.36,6.36,0,0,1,1.71-.8c-.13-.33-.27-.67-.39-1a5.86,5.86,0,0,1-.53-2.77,5.45,5.45,0,0,1,10.42-.84Z"/><path class="cls-8" d="M118.58,25.22h2c1.78-2.67,3.62-5.3,5.57-7.85.93-1.23,1.9-2.42,2.87-3.62,1.42-1.76,2.95-3.42,4.48-5.08.14-.15.34-.3.11-.52a.35.35,0,0,0-.55,0c-.37.39-.85.65-1.22,1.05-.62.66-1.27,1.28-1.91,1.92-1.83,1.82-3.49,3.77-5.15,5.73-2.14,2.54-4.05,5.24-6,7.92A4.1,4.1,0,0,0,118.58,25.22Z"/><path class="cls-9" d="M112.54,42.11A3.59,3.59,0,0,0,111,42a4,4,0,0,1-1.54-.3,13,13,0,0,1-1,2.31,17.16,17.16,0,0,0,1.51,2.17c.3-1.13.8-2.2,1.18-3.3a.94.94,0,0,1,1.16-.74A1.5,1.5,0,0,0,112.54,42.11Z"/><polygon class="cls-7" points="107.88 43.43 107.93 43.49 107.93 43.45 107.88 43.43"/><path class="cls-7" d="M107.73,43.23l.11.13A.13.13,0,0,0,107.73,43.23Z"/><path class="cls-10" d="M93.83,19.3a.81.81,0,0,0-1.24.07c-.59.58-1.15,1.19-1.71,1.79L86.8,25.5a3.5,3.5,0,0,1-.3.24c0,.28-.26.42-.42.6l-1.39,1.49-.23.23c-1.17,1.23-2.27,2.53-3.51,3.7a.63.63,0,0,1-.29.31C79,34,77.2,35.81,75.44,37.66l-2.33,2.46a10.23,10.23,0,0,1-.91,1.05.83.83,0,0,0-.17.93.86.86,0,0,0,.8.53h.54c1.06,0,2.11,0,3.17,0s1.43.63.93,1.59-.87,1.62-1.31,2.43L64,69.22c-.58,1.09-1.17,2.17-1.74,3.23a.77.77,0,0,1-.49-.14A4.12,4.12,0,0,0,56,74.91c-.16.57-.17.57-.81.5-1.57-.15-3.14-.28-4.7-.48a9.51,9.51,0,0,1-1.91-.24c-.1,0-.2,0-.3,0l-6.3-.63-7.3-.73L30.87,73c-.25,0-.51,0-.77,0-1.18-.13-1.67-.61-1.18-1.77s.89-2.47,1.35-3.7a1,1,0,0,0-.08-1.16,1,1,0,0,0-1.13-.23c-1.6.4-3.22.76-4.81,1.16-2.4.61-4.82,1.09-7.19,1.79-1.1.25-2.2.52-3.3.75s-2.43.65-3.67.84A13.74,13.74,0,0,1,8,71.17L2.28,72.56c-.13,0-.25,0-.38,0-.35.08-.69.15-1,.25-.64.17-.85.4-.86.89s.2.73.81.94a3.86,3.86,0,0,1,.94.32c.94.25,1.89.48,2.83.76,1.68.5,3.39.89,5.05,1.47s3.53.94,5.28,1.47c1.41.29,2.77.74,4.15,1.13a25.53,25.53,0,0,1,3.3,1c.26,0,.51.1.75.17,1.94.53,3.87,1.08,5.81,1.62a3.3,3.3,0,0,0,.52.13.85.85,0,0,0,1-1.12,3.24,3.24,0,0,0-.29-.63l-1.45-2.81c-.4-.8-.3-1.1.5-1.55a1.13,1.13,0,0,1,1.07,0h.47c2.31.23,4.63.17,6.95.28,2.73.13,5.46.16,8.19.24,1.16,0,2.31.11,3.47.16,2,0,4,.12,6,.14a1.2,1.2,0,0,1,1.17.67,4.1,4.1,0,0,0,7.38-3.48A1.35,1.35,0,0,1,64,73.33q6.5-10.5,13-21c1.28-2.06,2.57-4.11,3.8-6.19A1,1,0,0,1,82.52,46a12.92,12.92,0,0,0,1,1.09c.66.72,1.32,1.45,2,2.14a.87.87,0,0,0,1.56-.4,3.27,3.27,0,0,0,.1-.45C87.8,45.88,88.38,43.42,89,41c.35-1.35.59-2.72,1-4,.29-1.72.76-3.4,1.22-5.09l.06-.28a14.93,14.93,0,0,1,.72-2.72c.17-1.3.57-2.56.87-3.84.35-1.5.74-3,1.11-4.5C94.14,20.08,94.23,19.65,93.83,19.3Zm-68,49.19c-2,.47-3.94,1-5.92,1.44C14.8,71.12,9.7,72.35,4.6,73.57a1.32,1.32,0,0,0-.51.16c-.18.12-.16.27,0,.36a1.6,1.6,0,0,0,.44.13c1.67.41,3.35.81,5,1.23a1.12,1.12,0,0,1,.67.28c-.13.24-.28.13-.41.1L5.46,74.75,4,74.38a.48.48,0,0,1-.39-.51A.51.51,0,0,1,4,73.43a6.55,6.55,0,0,1,.67-.18c3.38-.79,6.75-1.62,10.13-2.39,3.18-.72,6.34-1.54,9.51-2.31a8.89,8.89,0,0,1,1.82-.36C26.09,68.48,25.94,68.46,25.83,68.49Zm63-43.14.15-.16a.9.9,0,0,1,.62-.62l.16-.15a.41.41,0,0,1,.16-.31L90,24a.87.87,0,0,1,.62-.62l.16-.15s.08-.09.09-.08,0,.1,0,.14l-.15.16a.88.88,0,0,1-.62.63l-.15.15a.41.41,0,0,1-.16.31l-.15.15a.9.9,0,0,1-.62.62,1.21,1.21,0,0,1-.16.16l-.09.08C88.67,25.44,88.75,25.39,88.79,25.35ZM87.7,26.59a1.31,1.31,0,0,1,.78-.78l.09-.08c.1.06,0,.11,0,.15a1.29,1.29,0,0,1-.77.78s-.08.08-.1.07S87.66,26.63,87.7,26.59Zm-.31.46s.09-.08.1-.07,0,.09,0,.14-.08.24-.25.22a.06.06,0,0,1,0-.05C87.16,27.13,87.27,27.08,87.39,27.05Zm4.69-4c0,.12-.07.24-.1.37Q90.56,29.21,89.12,35c-.76,3.07-1.53,6.14-2.28,9.2-.07.26-.07.54-.38.7a1,1,0,0,1,.06-.71q2.17-8.76,4.38-17.52c.27-1.09.57-2.19.83-3.29.15-.65,0-.74-.54-.57,0,0-.09.08-.1.07s0-.1,0-.14c.12-.3.33-.47.66-.35S92.11,22.78,92.08,23.08Z"/><path class="cls-11" d="M126.31,103.79a3.17,3.17,0,0,1-1.53,1.36,8.44,8.44,0,0,0-1.31-2.59c-.47-.74-1.22-1.24-1.64-2-.43,0-.69-.29-1-.48s-.35-.16-.46,0c-.6,1.07-1.68,1.12-2.69,1.18a13,13,0,0,1-3.87-.51,31.45,31.45,0,0,1-3.1-.93,5,5,0,0,0-4.87.73,6.76,6.76,0,0,0-1.33,1.49,2.18,2.18,0,0,1-.21.22,16.75,16.75,0,0,1-1.48,1.19,10.8,10.8,0,0,0-1.6.79,28.8,28.8,0,0,1-3.83,0,12.58,12.58,0,0,0,.13-2.94A2.34,2.34,0,0,0,100,99.43a7,7,0,0,0,.15-3.19,1.22,1.22,0,0,0-.36-.5,3.64,3.64,0,0,1-.62-3.7,1.23,1.23,0,0,1,.43-.62,37,37,0,0,1,3.22-2.37,3.2,3.2,0,0,0,3.85-.33c.84-.68,1.15-1.38.73-2.27l.49-.29,2.28-.81a27.46,27.46,0,0,1,3.12-.53,10.19,10.19,0,0,1,2.07.11,2.34,2.34,0,0,1,1,.43,14.46,14.46,0,0,0,1.58,1.11l.35.3A38.32,38.32,0,0,1,124,92.2a14.36,14.36,0,0,1,2.08,3,7.14,7.14,0,0,1,1.17,2.59A6.51,6.51,0,0,1,126.31,103.79Z"/><path class="cls-12" d="M121.83,100.54c-.43,0-.69-.29-1-.48s-.34-.15-.46,0c-.6,1.07-1.68,1.11-2.69,1.18a13,13,0,0,1-3.87-.51,30.65,30.65,0,0,1-3.1-.93,5,5,0,0,0-4.87.73,7,7,0,0,0-1.33,1.49,2.18,2.18,0,0,1-.21.22,4.32,4.32,0,0,1-.51,1.19c-.34.84-.35.84.52.85,0,0,.06,0,.08,0a1.59,1.59,0,0,0,1.71-.74c.17-.24.34-.53.69-.58.15-.43.51-.48.88-.45a8.73,8.73,0,0,0,2.22-.23,2.33,2.33,0,0,1,2,.36,17.1,17.1,0,0,0,3,1.65c1.08.49,2.18.9,3.29,1.3h6c.16-.24.52-.23.65-.5a8.19,8.19,0,0,0-1.3-2.59C123,101.82,122.25,101.32,121.83,100.54Z"/><path class="cls-1" d="M117.72,64.85a6.26,6.26,0,0,0,.25,1.29c.48-.18.62-.67.86-1a19.35,19.35,0,0,1,6.09-5.62,31.14,31.14,0,0,1,10.6-3.85,8.73,8.73,0,0,1,1.45-.2c.15,0,.32,0,.38-.18C133.11,54.8,122.8,57.42,117.72,64.85Z"/><path class="cls-7" d="M116.88,61.78l.07.16C117,61.87,116.94,61.82,116.88,61.78Z"/><path class="cls-7" d="M116.57,60.7l.07.16A.12.12,0,0,0,116.57,60.7Z"/><path class="cls-13" d="M122.64,114.17a26.49,26.49,0,0,1-4,2.7,27.07,27.07,0,0,0-3.53,2.49,2,2,0,0,0-.52.57,2.78,2.78,0,0,0-.78.92,4.81,4.81,0,0,0-1,1.71,20.36,20.36,0,0,1-.74,2.16c-.06.26-.11.52-.16.77-.49,1.36-1,2.72-1.47,4.07a27.12,27.12,0,0,1-3.21,6.3c-.31.21-.48.57-.83.71a7.43,7.43,0,0,1-2.18-.65,1.09,1.09,0,0,1-.53-.53,11.81,11.81,0,0,0,.4-2.29c.39-2.21.77-4.42,1.17-6.63a4.91,4.91,0,0,1,.15-.51.85.85,0,0,1,.13-.62c.12,0,.25,0,.28-.18s-.06-.26-.21-.32c.06-.25.12-.51.17-.77.49-.12.52-.24.15-.62a14.29,14.29,0,0,1,.79-2.66,3.49,3.49,0,0,0,.29-.88,28.23,28.23,0,0,1,2.12-4,22.8,22.8,0,0,0-6.39,3.21,4.51,4.51,0,0,0-1.35,3.34,14.73,14.73,0,0,0,.82,5.14,25.39,25.39,0,0,0,1.49,3.8c.13.29.21.53,0,.77a9.29,9.29,0,0,1-2.33,1.18c-.44.12-.69-.07-.92-.46a44.11,44.11,0,0,1-4.57-9.73c0-.16,0-.36-.22-.47-.13-.84-.29-1.67-.39-2.51a5.46,5.46,0,0,1,.91-4.19,8,8,0,0,1,2.09-1.71,32.27,32.27,0,0,1,8.22-3.5l1.1-.33,3.19-.74c.15,0,.31,0,.37-.22a12.43,12.43,0,0,0,5.91,0,.93.93,0,0,0,.2-.1H123A7.47,7.47,0,0,1,122.64,114.17Z"/><path class="cls-5" d="M106.77,103c-.35,0-.52.34-.69.58a1.59,1.59,0,0,1-1.71.74s-.05,0-.07,0c-.88,0-.87,0-.53-.85a4.32,4.32,0,0,0,.51-1.19,16.75,16.75,0,0,1-1.48,1.19.94.94,0,0,1-1.15.8,3.38,3.38,0,0,0-.45,0,28.8,28.8,0,0,1-3.83,0c-.49,0-1,.21-1.45-.19-.39-1.08-1-2.07-1.43-3.13a2,2,0,0,1-.27-.71L93,97.91a1.68,1.68,0,0,0-.25-.64c-.78-1.67-1.58-3.34-2.35-5a4.22,4.22,0,0,0-1.2-1.48,1.64,1.64,0,0,0-1.09-.31h-12c-.82,0-1.65,0-2.47,0a1.11,1.11,0,0,0-1,1.54c.92,2.59,2,5.12,3,7.68l1.77,4.52a4,4,0,0,0,.88,1.44,4.9,4.9,0,0,0,.54,0H91.15c.16,0,.31,0,.47,0,1.65.06,3.3.06,5,0a1.35,1.35,0,0,0-.18-.65c-.19-.5-.15-.58.4-.59,1,0,1.94,0,2.92,0s1.07,0,1.19,1.08c0,0,0,.1,0,.15,2.64,0,5.29.07,7.94,0C108.26,104.69,107.44,103.91,106.77,103Zm-23-4.34c-.06.43-.19.82-.67.93A1,1,0,0,1,82,99.14a2.41,2.41,0,0,1-.27-2.85l.28-.14.23-.08a2,2,0,0,1,1.31,1.27,5.28,5.28,0,0,1,.23,1C83.76,98.47,83.74,98.57,83.73,98.67Z"/><path class="cls-7" d="M2.28,72.56c-.13,0-.25,0-.38,0A57,57,0,0,1,4.44,59.74c.38-1.18.8-2.34,1.2-3.51a3.36,3.36,0,0,0,.42-.9A57.71,57.71,0,0,1,32.75,26.11a59.67,59.67,0,0,1,9.75-4.05.28.28,0,0,0,.26-.1l.45-.09a57.75,57.75,0,0,1,21.73-2.1,62.12,62.12,0,0,1,11.62,2.16,63.65,63.65,0,0,1,9.94,3.81c0,.28-.26.42-.42.6l-1.39,1.49a59,59,0,0,0-13.08-4.39,57.89,57.89,0,0,0-9.73-1.2,55,55,0,0,0-7.59.2,54,54,0,0,0-16.61,4.28c-.11.05-.26.07-.27.26.24.06.42-.08.62-.16a53.78,53.78,0,0,1,11.82-3.53A51,51,0,0,1,61,22.48a8,8,0,0,0,2.18.1,47.58,47.58,0,0,1,8.73,1.16,56.38,56.38,0,0,1,11.65,3.83,4.74,4.74,0,0,1,.95.49c-1.17,1.23-2.27,2.53-3.51,3.7A52,52,0,0,0,68.1,28c-2.11-.33-4.24-.5-6.37-.64a50,50,0,0,0-5.48.08A38.34,38.34,0,0,0,51,28a53.25,53.25,0,0,0-8,2.11A50.14,50.14,0,0,0,23.93,42.31a2.56,2.56,0,0,0-.51.58,22,22,0,0,1-1.57,1.77A43.79,43.79,0,0,0,17,51.2a50.63,50.63,0,0,0-4.78,10.19,49.9,49.9,0,0,0-2.06,8.54,5.32,5.32,0,0,0,0,.69A13.74,13.74,0,0,1,8,71.17Z"/><path class="cls-7" d="M83.26,123.45c-1.17,2.51-2.28,5.06-3.4,7.6a1.38,1.38,0,0,1-.68.78l-.37.1a57.33,57.33,0,0,1-14.22,3.13,56.71,56.71,0,0,1-12.89-.31,57.3,57.3,0,0,1-19.16-6.16,36.93,36.93,0,0,1-4.63-2.79c-.2-.11-.4-.22-.59-.34A57.84,57.84,0,0,1,13.48,112.4a39.14,39.14,0,0,1-3.28-4.87c-.14-.21-.3-.41-.43-.63A57.49,57.49,0,0,1,1.75,75c.94.25,1.89.48,2.83.76,1.68.5,3.39.89,5.05,1.47a43.6,43.6,0,0,0,.59,8.07A49.33,49.33,0,0,0,14.1,98.22c.53,1.15,1.11,2.27,1.71,3.38.13.24.24.51.36.76a24.52,24.52,0,0,1,1.46,2.28,50.75,50.75,0,0,0,8.52,10A49.2,49.2,0,0,0,34,120.41h0a54.93,54.93,0,0,0,10.4,4.69c1.7.55,3.44,1,5.19,1.41a7.12,7.12,0,0,1,1.64.33c.06,0,.19-.06.28-.1a3.51,3.51,0,0,0,1.35.25c1.36.16,2.71.35,4.08.38.79,0,1.59.13,2.38.12a56,56,0,0,0,8.68-.73,52,52,0,0,0,7.7-1.94,50.6,50.6,0,0,0,7.45-3.22A1.59,1.59,0,0,1,83.26,123.45Z"/><path class="cls-7" d="M86.17,128.37a.55.55,0,0,1,0,.38l-4.32,2c-.39,0-.23-.23-.15-.4q1.23-2.79,2.47-5.56a.46.46,0,0,1,.27-.3C85,125.8,85.59,127.08,86.17,128.37Z"/><path class="cls-7" d="M108.18,109.38c-.09.42-.49.66-.62,1.07l-1.1.33a32.27,32.27,0,0,0-8.22,3.5A8,8,0,0,0,96.15,116a5.46,5.46,0,0,0-.91,4.19c.1.84.26,1.67.39,2.51a63.89,63.89,0,0,1-8,5.28c-.87-1.64-1.53-3.38-2.31-5.06a.59.59,0,0,1,0-.52,29.12,29.12,0,0,1,1.38-2.94,9.52,9.52,0,0,0,2.15-1.33,54.29,54.29,0,0,0,7.78-6.66c.64-.67,1.24-1.37,1.86-2.06Z"/><path class="cls-10" d="M106.77,103c.67.9,1.48,1.68,2.09,2.63,1.87,0,3.74,0,5.61,0l3.61,0c-1.11-.4-2.21-.81-3.29-1.3a17.1,17.1,0,0,1-3-1.65,2.33,2.33,0,0,0-2-.36,8.73,8.73,0,0,1-2.22.23C107.28,102.53,106.92,102.58,106.77,103Z"/><path class="cls-5" d="M100.92,105.65a.76.76,0,0,0,0-.15c-.12-1.08-.12-1.08-1.19-1.08s-2,0-2.92,0c-.55,0-.6.09-.4.58a1.42,1.42,0,0,1,.18.66C98,105.7,99.47,105.71,100.92,105.65Z"/><path class="cls-11" d="M111.12,109.49a12.47,12.47,0,0,0,5.92,0,1.14,1.14,0,0,0,.19-.1c-2,0-4.09-.08-6.14,0Z"/><path class="cls-14" d="M7.62,32.39c1.46.8,2.69.23,3.81-.71a14.65,14.65,0,0,0,3.25-3.89A2.77,2.77,0,0,0,15,26a8.34,8.34,0,0,0-.63-1.13c-.26-.3-.43-.34-.69-.05-.51.57-1,1.18-1.48,1.77-.13.16-.18.33,0,.48a.39.39,0,0,1,0,.6,12.51,12.51,0,0,1-2.09,2.15c-.19.16-.4.25-.62,0s-.45-.11-.66.08c-.49.45-1,.88-1.49,1.34s-.47.46,0,.9C7.45,32.26,7.54,32.32,7.62,32.39Zm1.32,0a2,2,0,0,1-1-.25c-.4-.2-.43-.39-.11-.7s.61-.55.92-.82.51-.5.93-.27a.58.58,0,0,0,.58-.12,10.18,10.18,0,0,0,2.42-2.48c.11-.17.27-.39.12-.57-.33-.38-.06-.6.15-.85l.74-.89c.2-.25.38-.22.56,0a1.62,1.62,0,0,1,.22,1.87,12.7,12.7,0,0,1-4,4.61A2.65,2.65,0,0,1,8.94,32.37Z"/><path class="cls-14" d="M10.05,22.65A5.48,5.48,0,0,0,4.76,27.8a.53.53,0,0,0,.06.37.29.29,0,0,0,.26.13.21.21,0,0,0,.21-.18c0-.26.09-.51.12-.76A4.84,4.84,0,0,1,10,23.22c.23,0,.62.14.63-.23S10.26,22.7,10.05,22.65Z"/><path class="cls-14" d="M9.85,24.13a3.89,3.89,0,0,0-3.63,3.66c0,.17,0,.37.09.51s.29.18.37,0a3,3,0,0,0,.14-.67,3.22,3.22,0,0,1,3-2.89c.26,0,.61.09.68-.32C10.57,24.18,10.41,24.12,9.85,24.13Z"/><path class="cls-14" d="M7.62,28a1.58,1.58,0,0,0,0,.23.24.24,0,0,0,.27.21.23.23,0,0,0,.28-.19c0-.13,0-.26,0-.39a1.84,1.84,0,0,1,1.55-1.75c.18,0,.37,0,.52-.13a.29.29,0,0,0,.09-.28.2.2,0,0,0-.2-.19h-.3A2.54,2.54,0,0,0,7.62,28Z"/><path class="cls-2" d="M122.64,114.17a26.49,26.49,0,0,1-4,2.7,27.07,27.07,0,0,0-3.53,2.49,2,2,0,0,0-.52.57c2.4,0,4.8,0,7.2,0a2.09,2.09,0,0,0,2.22-2.15,13.21,13.21,0,0,0,0-1.78A1.84,1.84,0,0,0,122.64,114.17Z"/><path class="cls-12" d="M103.67,132.17a9.29,9.29,0,0,1-2.33,1.18c.31.62.85,1.13.86,1.89.49.07,1,.38,1.5.15a11.81,11.81,0,0,0,.4-2.29C103.87,132.83,103.87,132.45,103.67,132.17Z"/><path class="cls-9" d="M42.91,2.94a13.69,13.69,0,0,0-3.34-.87,7.92,7.92,0,0,0-5.26,1A4,4,0,0,0,32.49,5.5a6.44,6.44,0,0,0,.45,4.79,10.24,10.24,0,0,0,1.35,1.58A14,14,0,0,0,40.19,14c.63.1,1.27.15,1.91.19a9.63,9.63,0,0,1,1.61.13,1.48,1.48,0,0,0,.47,0c.28,0,.59-.05.62-.43s-.22-.43-.47-.52l-1.95-.72a1.9,1.9,0,0,1-.73-.4l1.62-.38a4.5,4.5,0,0,0,2.64-1.64,3.27,3.27,0,0,0,.67-2.68A6.13,6.13,0,0,0,44,3.68C43.65,3.42,43.27,3.19,42.91,2.94Zm-7.25,8.85A4.75,4.75,0,0,1,33,7.22a4.1,4.1,0,0,1,3-4.1,9.06,9.06,0,0,1,5.38.09,3.07,3.07,0,0,1,1.58.73,5.12,5.12,0,0,1,2.83,3.38,2.75,2.75,0,0,1-1.23,3.21,6.07,6.07,0,0,1-3.15.91c-.86.06-1.72,0-2.76,0A27,27,0,0,0,42,13.36a.88.88,0,0,1-.66.07c-.64-.08-1.28-.15-1.9-.29A11.18,11.18,0,0,1,35.66,11.79Z"/><path class="cls-12" d="M106,137.54c0-.39.34-.62.43-1a7.14,7.14,0,0,1-2.18-.65l-.41,1.19c0,.35-.18.74.23,1a1.37,1.37,0,0,0,1.33,0,3.56,3.56,0,0,0,.48-.39Z"/><path class="cls-8" d="M111.93,137.43l-.17.13A.17.17,0,0,0,111.93,137.43Z"/><path class="cls-15" d="M84.46,28.06a2.5,2.5,0,0,0,.23-.23C70.35,21.06,52.14,19.9,37.41,27,52,20.79,69.74,20.78,84.46,28.06Z"/><path class="cls-13" d="M91.54,109.37c2.3,0,4.59,0,6.89,0-.62.69-1.22,1.39-1.86,2.06a54.29,54.29,0,0,1-7.78,6.66,9.52,9.52,0,0,1-2.15,1.33,4.48,4.48,0,0,1,.44-1.15l1-2.19L90.78,110C90.93,109.62,91.07,109.36,91.54,109.37Z"/><path class="cls-13" d="M110.4,69a8.42,8.42,0,0,1-.08-1c-.3-1.25-.57-2.5-.9-3.74a22.25,22.25,0,0,0-1.21-3.73,17.22,17.22,0,0,0-1.12-2.95,48.57,48.57,0,0,0-6.36-10.67A50.39,50.39,0,0,0,90.26,37c-.06,0-.14-.06-.21-.1-.46,1.32-.7,2.69-1,4-.62,2.44-1.2,4.9-1.81,7.35a3.27,3.27,0,0,1-.1.45.87.87,0,0,1-1.56.4c-.69-.69-1.35-1.42-2-2.14a12.92,12.92,0,0,1-1-1.09,1,1,0,0,0-1.76.18c-1.23,2.08-2.52,4.13-3.8,6.19q-6.48,10.51-13,21a1.35,1.35,0,0,0-.18,1.33,4.1,4.1,0,0,1-7.38,3.48,1.2,1.2,0,0,0-1.17-.67c-2,0-4-.09-6-.14-1.16,0-2.31-.12-3.47-.16-2.73-.08-5.46-.11-8.19-.24-2.32-.11-4.64-.05-6.95-.28h-.47a3.83,3.83,0,0,1-1.07,0c-.8.45-.9.75-.5,1.55L30.12,81a3.24,3.24,0,0,1,.29.63.85.85,0,0,1-1,1.12,3.3,3.3,0,0,1-.52-.13C27,82.08,25.05,81.53,23.11,81c-.24-.07-.49-.12-.75-.17a4,4,0,0,1-4.79,2.34,4.64,4.64,0,0,1-1.9-1.39,4.2,4.2,0,0,1-.76-3.07c-1.75-.53-3.51-1-5.28-1.47a43.6,43.6,0,0,0,.59,8.07A49.33,49.33,0,0,0,14.1,98.22c.53,1.15,1.11,2.27,1.71,3.38.13.24.24.51.36.76a24.52,24.52,0,0,1,1.46,2.28,50.75,50.75,0,0,0,8.52,10A49.2,49.2,0,0,0,34,120.41a54.34,54.34,0,0,0,10.4,4.7c1.7.55,3.44,1,5.19,1.41a7.12,7.12,0,0,1,1.64.33c.06,0,.19-.06.28-.1a3.51,3.51,0,0,0,1.35.25c1.36.16,2.71.35,4.08.38.79,0,1.59.13,2.38.12a56,56,0,0,0,8.68-.73,52,52,0,0,0,7.7-1.94,50.6,50.6,0,0,0,7.45-3.22c-.53-1.45-1.23-2.82-1.84-4.23-.19-.45-.39-.89-.58-1.34-.11-.24-.22-.47-.56-.43a3.21,3.21,0,0,1-1.74-2.41.81.81,0,0,1,.22-.85c.32-.23.25-.44.12-.71-.27-.56-.54-1.13-.76-1.7a.78.78,0,0,0-.88-.57c-1.21,0-2.42,0-3.63,0a1.26,1.26,0,0,1-1.4-1c-.14-.42-.34-.81-.5-1.22-.42-1-.09-1.54,1-1.54h5c.26,0,.51,0,.77,0a4,4,0,0,1-.88-1.44l-1.77-4.52c-1-2.56-2.05-5.09-3-7.68a1.11,1.11,0,0,1,1-1.54c.82,0,1.65,0,2.47,0h12a1.64,1.64,0,0,1,1.09.31,4.22,4.22,0,0,1,1.2,1.48c.77,1.68,1.57,3.35,2.35,5a1.68,1.68,0,0,1,.25.64l1.22,2.35a9.55,9.55,0,0,0,3.28,1.09A2.34,2.34,0,0,0,100,99.43a7,7,0,0,0,.15-3.19,1.22,1.22,0,0,0-.36-.5,3.64,3.64,0,0,1-.62-3.7,1.23,1.23,0,0,1,.43-.62,37,37,0,0,1,3.22-2.37c-.16-.52-.54-1-.65-1.49a10,10,0,0,1-1.42.3,2.2,2.2,0,0,1-.94.26c-.51.09-.73,0-.86-.53a17.65,17.65,0,0,1-.52-3.24.64.64,0,0,1,.32-.71c-.25-1.59-.28-3.19-.47-4.78-.22-.06-.45-.11-.67-.15a1.27,1.27,0,0,1-1.07-1.06,2.57,2.57,0,0,1,1.88-3.26c-.33-.28-.17-.62-.08-.92a3.83,3.83,0,1,1,7.06,2.89,2.43,2.43,0,0,1-.06.85c-.26.58-.07.93.47,1.26a1.18,1.18,0,0,1,.48,1.67,3.4,3.4,0,0,1-.31.52,1.91,1.91,0,0,1-1.06,2.82,25.18,25.18,0,0,0,2.48,3l.49-.29,2.28-.81c.21-1.48.47-2.94.62-4.42A48.85,48.85,0,0,0,110.4,69ZM24.47,102.08a3.3,3.3,0,0,1-2.37,1.69c-.66.06-1-.37-.77-1a3.36,3.36,0,0,1,2.4-1.76C24.49,101,24.84,101.43,24.47,102.08Zm16.25,16.24a.67.67,0,0,1-1.15-.31,3.32,3.32,0,0,1,1.28-3,.65.65,0,0,1,1,.47,3.78,3.78,0,0,1,0,.51A3.17,3.17,0,0,1,40.72,118.32ZM91.23,54.6c-.67.12-1.07-.37-.79-1a3,3,0,0,1,2.22-1.73c.88,0,1.16.33.91,1a1.47,1.47,0,0,1-.14.28A3.36,3.36,0,0,1,91.23,54.6Zm5.48,42.54a.74.74,0,0,1,.19.86c-.19.34-.53.37-1,.37A3.17,3.17,0,0,1,93.62,97c-.4-.6-.15-1.12.55-1.13A3.19,3.19,0,0,1,96.71,97.14Z"/><path class="cls-13" d="M88.21,112.32,85.69,118l-1.25,2.77a5,5,0,0,1-.8-1.57c-.62-1.38-1.3-2.73-1.81-4.16a1.83,1.83,0,0,1-.16-.26c-.71-1.57-1.42-3.15-2.11-4.72-.07-.18-.23-.36-.1-.58,1.3-.13,9.35-.07,10,.08a15.3,15.3,0,0,1-.87,1.88A3.44,3.44,0,0,1,88.21,112.32Z"/><path class="cls-12" d="M91.19,22.79c.59-.17.69-.08.54.57-.26,1.1-.55,2.19-.83,3.29q-2.19,8.76-4.38,17.52a1,1,0,0,0-.06.71c.31-.16.31-.44.38-.69L89.12,35Q90.54,29.21,92,23.45c0-.13.08-.25.1-.38,0-.28,0-.58-.3-.7a.5.5,0,0,0-.67.35Z"/><path class="cls-15" d="M91.27,31.85a4.73,4.73,0,0,1,1,.61,57,57,0,0,1,9.82,8.45,43.48,43.48,0,0,1,2.83,3.37c.19.24.31.59.71.64-.23-.76-3.94-4.92-6.5-7.31a54.17,54.17,0,0,0-7.78-6Z"/><path class="cls-2" d="M75.44,37.67c-.49-.77-.8-.82-1.42-.19a2.93,2.93,0,0,0-.91,2.64Z"/><path class="cls-12" d="M87.78,26.66a1.27,1.27,0,0,0,.77-.78l-.07-.07a1.27,1.27,0,0,0-.77.78Z"/><path class="cls-12" d="M89.56,24.57a.9.9,0,0,0-.62.62l.08.08a.93.93,0,0,0,.62-.63Z"/><path class="cls-12" d="M90.1,24a.88.88,0,0,0,.62-.63l-.07-.07A.87.87,0,0,0,90,24Z"/><path class="cls-12" d="M87.4,27.05c-.13,0-.24.08-.23.24a.06.06,0,0,0,0,.05c.16,0,.21-.1.25-.22A.46.46,0,0,1,87.4,27.05Z"/><path class="cls-12" d="M89.88,24.11a.39.39,0,0,0-.16.3l.07.08a.41.41,0,0,0,.16-.31Z"/><path class="cls-12" d="M87.47,27.12c0-.05.11-.09,0-.14s-.06,0-.09.07A.46.46,0,0,0,87.47,27.12Z"/><path class="cls-12" d="M87.71,26.59c0,.05-.12.09,0,.15l.1-.08Z"/><path class="cls-12" d="M88.79,25.35s-.12.09,0,.15l.09-.08Z"/><path class="cls-12" d="M88.86,25.42l.16-.15-.08-.08-.15.16Z"/><path class="cls-12" d="M89.64,24.64l.15-.15-.07-.08-.16.16Z"/><path class="cls-12" d="M88.55,25.88s.12-.09,0-.15l-.09.08Z"/><path class="cls-12" d="M90,24l-.15.16.07.07L90.1,24Z"/><path class="cls-12" d="M90.72,23.4l.15-.16-.07-.06-.15.15Z"/><path class="cls-12" d="M90.87,23.24s.12-.08,0-.14-.06,0-.1.08Z"/><path class="cls-12" d="M91.11,22.72s-.11.08,0,.14.06-.05.1-.07Z"/><path class="cls-13" d="M61.73,27.35a50,50,0,0,0-5.48.08A38.34,38.34,0,0,0,51,28a53.25,53.25,0,0,0-8,2.11A50.14,50.14,0,0,0,23.93,42.31a2.56,2.56,0,0,0-.51.58,22,22,0,0,1-1.57,1.77A43.79,43.79,0,0,0,17,51.2a50.63,50.63,0,0,0-4.78,10.19,49.9,49.9,0,0,0-2.06,8.54,5.32,5.32,0,0,0,0,.69c1.24-.19,2.44-.58,3.67-.84s2.2-.5,3.3-.75c2.37-.7,4.79-1.18,7.19-1.79,1.59-.4,3.21-.76,4.81-1.16a1,1,0,0,1,1.13.23,1,1,0,0,1,.08,1.16c-.46,1.23-.85,2.49-1.35,3.7s0,1.64,1.18,1.77c.26,0,.52,0,.77,0l3.76.34,7.3.73,6.3.63c.1,0,.2,0,.3,0a9.51,9.51,0,0,0,1.91.24c1.56.2,3.13.33,4.7.48.64.07.65.07.81-.5a4.12,4.12,0,0,1,5.86-2.6.77.77,0,0,0,.49.14c.57-1.06,1.16-2.14,1.74-3.23L76.16,46.66c.44-.81.88-1.62,1.31-2.43s.15-1.57-.93-1.59-2.11,0-3.17,0h-.54a.86.86,0,0,1-.8-.53.83.83,0,0,1,.17-.93,10.23,10.23,0,0,0,.91-1.05A2.93,2.93,0,0,1,74,37.48c.62-.63.93-.58,1.42.18C77.2,35.81,79,34,80.66,32.07a.63.63,0,0,0,.29-.31A52,52,0,0,0,68.1,28C66,27.66,63.86,27.49,61.73,27.35ZM21.06,59.65a1.26,1.26,0,0,1-.61.05,5.93,5.93,0,0,1-1.32-.4,3.48,3.48,0,0,1-1-1c-.33-.61-.12-1,.56-1.05.33,0,.67,0,1,0,.05.1.14.12.24.15a2.53,2.53,0,0,1,1.46,1.26C21.65,59.16,21.51,59.47,21.06,59.65ZM36.32,43.28a.77.77,0,0,1-.87,0A3.19,3.19,0,0,1,34,40.9c0-.84.48-1.14,1.07-.77a3.23,3.23,0,0,1,1.54,2.38A.74.74,0,0,1,36.32,43.28Zm16.59-3.47A3.86,3.86,0,1,1,56.75,36,3.83,3.83,0,0,1,52.91,39.81Z"/><path class="cls-15" d="M111.89,56l2.41,7C114.43,62.21,112.64,56.91,111.89,56Z"/><path class="cls-14" d="M83.09,12.69c1.44,0,2.87.13,4.31.24.49,0,1,0,1.47.06a9.15,9.15,0,0,1,1.38.1,1.19,1.19,0,0,0,1.51-1.28c0-1.78,0-3.56,0-5.34,0-.31,0-.62,0-.93,0-.12,0-.25,0-.38a.31.31,0,0,0-.34-.25.32.32,0,0,0-.34.26,2.41,2.41,0,0,0,0,.54c0,.67,0,1.34,0,2,0,1.31,0,2.62,0,3.93,0,.66-.09.74-.78.71-1.13,0-2.26-.11-3.38-.18-.08,0-.14-.06-.21-.09-1.29,0-2.58-.15-3.86-.19-.5,0-.61-.12-.61-.6q0-3.13,0-6.27c0-.49.12-.59.62-.57.7,0,1.39.1,2.08.17L89,5.07c.66.08.79.35.4.92C88.69,7,88,8.05,87.2,9.07c-.35.48-.58.47-1,0-.8-1-1.59-2.1-2.38-3.15-.36-.48-.57-.6-.77-.39s0,.56.2.79c.8,1.1,1.61,2.21,2.44,3.29a1.14,1.14,0,0,0,2-.06c.76-1,1.51-2.09,2.28-3.13A1.29,1.29,0,0,0,90.3,5a1.29,1.29,0,0,0-1.2-.7c-2-.13-3.95-.36-5.92-.58a2.84,2.84,0,0,0-.77,0,1.06,1.06,0,0,0-.89,1.18c0,1.21,0,2.42,0,3.64,0,.87,0,1.75,0,2.63,0,1.05.31,1.38,1.34,1.48Z"/><path class="cls-3" d="M86.65,12.09c.07,0,.13.09.21.09,1.12.07,2.25.14,3.38.18.69,0,.77,0,.78-.71,0-1.31,0-2.62,0-3.93a.78.78,0,0,0-.68.28c-1.08,1.2-2.19,2.36-3.33,3.5A2.84,2.84,0,0,0,86.65,12.09Z"/><path class="cls-14" d="M121.94,30.36a5.45,5.45,0,0,0-10.42.84,5.86,5.86,0,0,0,.53,2.77c.12.34.26.68.39,1,.85,1.62,1.69,3.24,2.64,4.8a3.22,3.22,0,0,0,.67.84,1.61,1.61,0,0,0,2.12,0,4,4,0,0,0,.79-1,47.11,47.11,0,0,0,2.84-5.46,11.41,11.41,0,0,0,.6-2.07A6.84,6.84,0,0,0,121.94,30.36Zm-7.72,6.22a18.33,18.33,0,0,1-1.37-2.73c-.15-.32-.26-.67-.38-1a3.4,3.4,0,0,1,.15-2.69c1.47-3,5.46-3,7.26-1.42A3.69,3.69,0,0,1,121,33.16c-.1.32-.18.64-.31,1A45.53,45.53,0,0,1,118.11,39a6,6,0,0,1-.58.9.88.88,0,0,1-1.5-.06A18.76,18.76,0,0,1,114.22,36.58Z"/><path class="cls-2" d="M17.58,83.17a4,4,0,0,0,4.78-2.34,29.12,29.12,0,0,0-3.3-1c-1.38-.39-2.74-.84-4.15-1.12a4.18,4.18,0,0,0,.76,3.06A4.7,4.7,0,0,0,17.58,83.17Z"/><path class="cls-12" d="M26.17,68.19a9.62,9.62,0,0,0-1.82.36c-3.17.77-6.33,1.59-9.51,2.31-3.38.77-6.75,1.6-10.13,2.39-.23.06-.45.11-.67.18a.51.51,0,0,0-.39.44.48.48,0,0,0,.39.51l1.42.36L9.8,75.83c.14,0,.29.14.42-.1a1.12,1.12,0,0,0-.67-.28c-1.67-.42-3.35-.82-5-1.23a1.6,1.6,0,0,1-.44-.13c-.16-.09-.18-.24,0-.36a1.27,1.27,0,0,1,.51-.16c5.1-1.21,10.2-2.45,15.31-3.64,2-.46,3.94-1,5.91-1.44C25.94,68.46,26.09,68.48,26.17,68.19Z"/><path class="cls-11" d="M29.17,76.64a3.83,3.83,0,0,0,1.07,0A1.13,1.13,0,0,0,29.17,76.64Z"/><path class="cls-12" d="M102.18,87.56a14,14,0,0,0,.65,1.49,3.22,3.22,0,0,0,3.85-.33,1.74,1.74,0,0,0,.73-2.27,25.92,25.92,0,0,1-2.48-3l-.76-.31a5.67,5.67,0,0,0-.24,2.27C104,86.8,103.35,87.34,102.18,87.56Z"/><path class="cls-12" d="M95.92,104.1c.44.4,1,.22,1.45.19a12.12,12.12,0,0,0,.13-3,9.32,9.32,0,0,1-3.28-1.08,2,2,0,0,0,.27.71C94.94,102,95.53,103,95.92,104.1Z"/><path class="cls-6" d="M101.2,104.27a3.38,3.38,0,0,1,.45,0,.94.94,0,0,0,1.15-.8A10.8,10.8,0,0,0,101.2,104.27Z"/><path class="cls-2" d="M64.16,119.14a9.4,9.4,0,0,0,.55,1.1,3.86,3.86,0,0,0,6.9-1.2,8.21,8.21,0,0,0,.18-1,4.05,4.05,0,0,0-1.61-3.1,3.86,3.86,0,0,0-6.09,3.81C64.11,118.89,64.13,119,64.16,119.14Z"/><path class="cls-2" d="M105.41,76.36a3.83,3.83,0,1,0-7.06-2.9c-.09.31-.25.65.08.93,1.15,0,1.52.21,2,1.34.31.24.69-.07,1,.07.49.25.81,0,1.19-.21a1.58,1.58,0,0,1,1.73-.16A1.65,1.65,0,0,1,105.41,76.36Z"/><path class="cls-12" d="M101.38,84.3c.8-.09,1.19-.44,1.2-1.21,0-1.36,0-2.72-.15-4.07a2.37,2.37,0,0,0-2.59-.53,1.66,1.66,0,0,1-.78.21,1.41,1.41,0,0,1-.78.16h0c.19,1.6.21,3.2.47,4.79A5.13,5.13,0,0,1,101.38,84.3Z"/><path class="cls-16" d="M106.3,80.14a3.4,3.4,0,0,1-.31.52,4.45,4.45,0,0,0-.51-.19,1,1,0,0,0-1.3.94c-.05.59,0,1.18,0,1.77a5.69,5.69,0,0,0-.24,2.27c.09,1.35-.58,1.89-1.75,2.11a10,10,0,0,1-1.42.3,2.2,2.2,0,0,1-.94.26c-.51.09-.73,0-.86-.53a17.65,17.65,0,0,1-.52-3.24.64.64,0,0,1,.32-.71,5.13,5.13,0,0,1,2.62.66c.8-.09,1.19-.44,1.2-1.21,0-1.36,0-2.72-.15-4.07a2.37,2.37,0,0,0-2.59-.53,1.78,1.78,0,0,1-.78.21c-.27,0-.55-.09-.77.15l-.67-.14a1.27,1.27,0,0,1-1.07-1.06,2.57,2.57,0,0,1,1.88-3.26c1.15,0,1.52.21,2,1.34.31.24.68-.06,1,.07.49.25.81,0,1.19-.21a1.58,1.58,0,0,1,1.73-.16,1.67,1.67,0,0,1,1.08.93,2.43,2.43,0,0,1-.06.85c-.26.58-.07.93.47,1.26A1.18,1.18,0,0,1,106.3,80.14Z"/><polygon class="cls-5" points="98.29 78.86 98.28 78.86 98.28 78.85 98.29 78.86"/><path class="cls-2" d="M22.1,103.77a3.32,3.32,0,0,0,2.37-1.69c.37-.65,0-1.11-.74-1.06a3.36,3.36,0,0,0-2.4,1.76C21.12,103.4,21.44,103.82,22.1,103.77Z"/><path class="cls-2" d="M95.9,98.37c.47,0,.81,0,1-.37a.73.73,0,0,0-.19-.85,3.14,3.14,0,0,0-2.54-1.24c-.7,0-1,.53-.55,1.13A3.2,3.2,0,0,0,95.9,98.37Z"/><path class="cls-2" d="M41.88,116a3.78,3.78,0,0,0,0-.51.65.65,0,0,0-1-.47,3.32,3.32,0,0,0-1.28,3,.67.67,0,0,0,1.16.31A3.16,3.16,0,0,0,41.88,116Z"/><path class="cls-2" d="M92.66,51.89a3,3,0,0,0-2.22,1.73c-.28.61.12,1.1.79,1a3.39,3.39,0,0,0,2.2-1.43,1.47,1.47,0,0,0,.14-.28C93.82,52.22,93.54,51.84,92.66,51.89Z"/><path class="cls-3" d="M106,80.66a4.45,4.45,0,0,0-.51-.19,1,1,0,0,0-1.3.94c-.05.59,0,1.18,0,1.77l.76.31A1.92,1.92,0,0,0,106,80.66Z"/><path class="cls-2" d="M102.75,119.12a.64.64,0,0,1,.46.24,1.88,1.88,0,0,0,1.52.56H107a28.23,28.23,0,0,1,2.12-4,22.8,22.8,0,0,0-6.39,3.21Z"/><path class="cls-6" d="M105.94,123.45l-.15.62C106.28,124,106.31,123.83,105.94,123.45Z"/><path class="cls-6" d="M105.62,124.84a.85.85,0,0,0-.07.5c.12,0,.25,0,.28-.17S105.77,124.9,105.62,124.84Z"/><path class="cls-2" d="M83.78,98.37a5.12,5.12,0,0,0-.23-1,2.06,2.06,0,0,0-1.32-1.27.22.22,0,0,1-.22.08l-.28.14A2.41,2.41,0,0,0,82,99.14a1,1,0,0,0,1.06.46c.47-.11.61-.5.67-.93C83.74,98.57,83.76,98.47,83.78,98.37Z"/><path class="cls-5" d="M82,96.15a.22.22,0,0,0,.22-.08Z"/><path class="cls-12" d="M8.94,32.37a2.65,2.65,0,0,0,1.52-.45,12.7,12.7,0,0,0,4-4.61,1.62,1.62,0,0,0-.22-1.87c-.18-.24-.36-.27-.56,0l-.74.89c-.21.25-.48.47-.15.85.15.18,0,.4-.12.57a10.18,10.18,0,0,1-2.42,2.48.58.58,0,0,1-.58.12c-.42-.23-.66,0-.93.27s-.63.53-.92.82-.29.5.11.7A2,2,0,0,0,8.94,32.37Z"/><path class="cls-3" d="M42.91,3.94a3.07,3.07,0,0,0-1.58-.73A9.06,9.06,0,0,0,36,3.12a4.1,4.1,0,0,0-3,4.1,4.75,4.75,0,0,0,2.68,4.57c.86-1.12,1.93-2,2.88-3.1C40,7.09,41.52,5.59,42.91,3.94Z"/><path class="cls-3" d="M42.91,3.94C41.52,5.59,40,7.09,38.54,8.69c-.95,1.05-2,2-2.88,3.1a11.18,11.18,0,0,0,3.75,1.35c.62.14,1.26.21,1.9.29a.88.88,0,0,0,.66-.07,27,27,0,0,1-3.37-1.91c1,0,1.9.05,2.76,0a6.07,6.07,0,0,0,3.15-.91,2.75,2.75,0,0,0,1.23-3.21A5.12,5.12,0,0,0,42.91,3.94Z"/><path class="cls-2" d="M34,40.9a3.16,3.16,0,0,0,1.49,2.34.75.75,0,0,0,.87,0,.74.74,0,0,0,.25-.77A3.25,3.25,0,0,0,35,40.13C34.44,39.76,34,40.06,34,40.9Z"/><path class="cls-2" d="M19.7,57.33c-.33,0-.67,0-1,0-.68,0-.89.45-.56,1.05a3.35,3.35,0,0,0,1,1,5.93,5.93,0,0,0,1.32.4,1.21,1.21,0,0,0,.6-.05c.46-.18.6-.49.36-.91A2.53,2.53,0,0,0,20,57.48.37.37,0,0,1,19.7,57.33Z"/><path class="cls-2" d="M52.91,39.81A3.86,3.86,0,1,0,49,35.94,3.83,3.83,0,0,0,52.91,39.81Z"/><path class="cls-3" d="M121,33.16a3.69,3.69,0,0,0-1.08-4.43c-1.8-1.62-5.79-1.62-7.26,1.42a3.4,3.4,0,0,0-.15,2.69c.12.34.23.69.38,1a18.33,18.33,0,0,0,1.37,2.73l1.73-.89c.23-.12.46-.23.46-.54L116,35a3.29,3.29,0,0,1-2-3.92,3.25,3.25,0,0,1,3.81-2.4,3,3,0,0,1,2,1.22c.13.18.18.39,0,.55a.37.37,0,0,1-.5,0c-.09-.08-.18-.18-.27-.27a2.56,2.56,0,0,0-4.29,1.21,2.54,2.54,0,0,0,4.5,2.08,3.2,3.2,0,0,0,.56-1.5c0-.21.14-.33.36-.33s.31.16.31.36,0,.67,0,1C120.54,33.16,120.77,33.12,121,33.16Z"/><path class="cls-3" d="M116.41,35.15c0,.31-.23.42-.46.54l-1.73.89A18.76,18.76,0,0,0,116,39.79a.88.88,0,0,0,1.5.06,6,6,0,0,0,.58-.9,45.53,45.53,0,0,0,2.54-4.84c.13-.31.21-.63.31-1-.19,0-.42,0-.55-.22-.06.11-.14.21-.2.32a3.16,3.16,0,0,1-3.18,1.9Z"/><path class="cls-6" d="M99.06,78.7c-.27,0-.56-.09-.78.16A1.41,1.41,0,0,0,99.06,78.7Z"/><path class="cls-14" d="M116.41,35.15H117a3.16,3.16,0,0,0,3.18-1.9c.06-.11.14-.21.2-.32,0-.34,0-.67,0-1s-.08-.35-.31-.36-.32.12-.36.33a3.2,3.2,0,0,1-.56,1.5,2.54,2.54,0,0,1-4.5-2.08A2.56,2.56,0,0,1,119,30.11c.09.09.18.19.27.27a.37.37,0,0,0,.5,0c.21-.16.16-.37,0-.55a3,3,0,0,0-2-1.22,3.25,3.25,0,0,0-3.81,2.4A3.29,3.29,0,0,0,116,35Z"/></g></g></svg>