<svg xmlns="http://www.w3.org/2000/svg" viewBox="0 0 534.26 292.99"><defs><style>.cls-1{fill:#6563c7;}.cls-2{fill:#3c3d94;}.cls-3{fill:#1d206b;}.cls-4{fill:#717aac;}.cls-5{fill:#3a3a3a;}.cls-6{fill:#35388a;}.cls-7{fill:#8eb7ea;}.cls-8{fill:#8eb7e9;}.cls-9{fill:#b0d5e2;}.cls-10{fill:#dc9c77;}.cls-11{fill:#e19a6f;}.cls-12{fill:#fdfdfd;}.cls-13{fill:#3a3c8d;}.cls-14{fill:#ef9967;}.cls-15{fill:#e08c5b;}.cls-16{fill:#3c3674;}.cls-17{fill:#131a1d;}.cls-18{fill:#03014b;}.cls-19{fill:#1f1d69;}.cls-20{fill:#040559;}.cls-21{fill:#29292b;}.cls-22{fill:#8ca7d5;}.cls-23{fill:#010316;}.cls-24{fill:#000852;}.cls-25{fill:#223770;}.cls-26{fill:#13225a;}.cls-27{fill:#142162;}.cls-28{fill:#031149;}.cls-29{fill:#e86f5c;}.cls-30{fill:#cbe5f5;}.cls-31{fill:#aad6f1;}.cls-32{fill:#e7c30d;}.cls-33{fill:#cc4f3e;}.cls-34{fill:#7eb3d4;}.cls-35{fill:#991a12;}.cls-36{fill:#3c1910;}.cls-37{fill:#290e0c;}.cls-38{fill:#532d1f;}.cls-39{fill:#341a11;}.cls-40{fill:#fdfdfc;}.cls-41{fill:#db6453;}.cls-42{fill:#b93023;}.cls-43{fill:#92b9e6;}.cls-44{fill:#90b8e4;}.cls-45{fill:#90b7e3;}.cls-46{fill:#344282;}.cls-47{fill:#2c3a7a;}.cls-48{fill:#313e81;}</style></defs><title>imageAsset 6</title><g id="Layer_2" data-name="Layer 2"><g id="Layer_1-2" data-name="Layer 1"><path class="cls-1" d="M502,140.73c3.64,13.49,7.25,27,10.93,40.47,1.88,6.86,2,13.59-.94,20.2-7.76,3.4-14.27,8.82-21.45,13.15-2,1.22-4.34,2.78-6.86.71-1.39-6.58-.48-13.22.26-19.69,1.39-12,2-24.11,3.35-36.14.74-6.84-.6-8.16-7.67-8.17q-51.33-.07-102.67,0c-6.38,0-7.26,1.35-6.74,7.87,1.27,15.86,2.3,31.73,3.49,47.59.2,2.61.43,5.34-1.2,7.71-2.37,1.93-5.12,1.56-7.45.42-6.81-3.37-12.92-8-20-10.88-2.15-15.36,2.22-30.23,3.31-45.34,1.06-14.58,7-27.52,12.92-40.46,3-6.67,8.82-11.08,15.28-14.44,10-5.2,20.36-9.66,30.71-14.13,1.71-.43,3.25-2.11,5.21-.75,1.42,2.09.94,4.48,1,6.76.27,6.48,1.88,12.45,8.34,15.25s13,2.16,18.56-2.88c3.12-3.12,4.32-7,4.41-11.29.05-2.43-.4-5.06,1.87-6.93,5.69,0,10.24,2.55,14.25,6.33L480.24,106c9.16,4.7,15.21,11.87,17.79,22C499.13,132.29,500.65,136.49,502,140.73Z"/><path class="cls-2" d="M404.14,1.2c6.17,1.74,9.58,5.72,9.9,12.19-.78,1.39-.41,2.9-.39,4.34.07,3.9-1.74,5.75-5.66,5.49A4,4,0,0,1,406.94,20c.66-5.87-2.22-9.63-7.17-12.2a14,14,0,0,0-4.47-.27q-176.08,0-352.15,0c-2.65,0-5.33-.32-7.93.39a16.9,16.9,0,0,0-8.77,7.66,62.36,62.36,0,0,0-.15,9q0,103.25,0,206.5c0,2.4-.75,5.06,1.61,6.94,2.73,1.16,5.59.72,8.39.72l284.18,0c3.15,0,6.33-.34,9.42.57a3.56,3.56,0,0,1,1.6,1.18,1.62,1.62,0,0,1-.93,1.6c-2.73,1.05-5.59.64-8.39.64q-143.46,0-286.9,0c-2.61,0-5.37-.63-7.66,1.3-2.42,4.51-1.75,6.18,3,6.51s9.3.64,13.65-1.74c2.25-1.22,4.84-1.09,7.34-1.09H319.56a30.46,30.46,0,0,1,8.86,1.2c1.62.48,3.45.89,4.65-.63,2.16-2.75,4.14-2.16,6.19,0,1.7,1.76,4,2.26,6.15,3.15,1.59.66,3.07,1.75,2.75,3.68-.28,1.67-1.88,2.32-3.41,2.44-4.63.36-9.23,1.66-13.89,1a112.17,112.17,0,0,0-15.43-.69H28.54c-4,0-8-.11-11.87,1.07a7.08,7.08,0,0,1-5.78-.67c-1.39-.8-2.89-1.3-4,.25-2.49,3.46-3.58.22-5.1-1L1,255.34c.28-3.72,2.45-5.11,6-4.8,2.23.19,3.6-.79,3.55-3-.12-4.54,1.74-6.71,5.29-5.74-4.37-.37-10,2.84-15.46-.37,4.87-1.77,9.92-.33,14.86-.83,1.67-.17,3.65.79,4.9-1.17,1.85-2,1.18-4,0-5.94Q20,183.28,19.88,133.1c0-8.77-.13-17.54-.19-26.31q.07-45.18.17-90.36c0-8.41,2.75-12.5,10-15.19C154.62.11,279.38,1.46,404.14,1.2Z"/><path class="cls-3" d="M404.14,1.2c-1.27,1.63-3.07.94-4.64.94q-182.49,0-365,0c-1.57,0-3.36.69-4.66-.91A1.1,1.1,0,0,1,30.69,1,20.82,20.82,0,0,1,36.15.7q181.32,0,362.63,0c1.81,0,3.66-.37,5.42.39Z"/><path class="cls-4" d="M404.2,1.1q-94.24,0-188.51.07-90.76,0-181.53,0C33,1.16,31.85,1,30.69,1,32.69-.2,34.9.23,37,.22Q67.36.1,97.7,0H233.51L300.3,0q48.32.08,96.63.19C399.37.2,401.93-.4,404.2,1.1Z"/><path class="cls-5" d="M485,215.48c6.85-1.5,11.46-6.78,17.1-10.29A26.49,26.49,0,0,1,512,201.4c10.06.24,17.16,5.25,20.9,14.27s-.45,16.12-6.66,22.36-14.16,9.87-21.72,14A294.27,294.27,0,0,1,468,269c-5.57.14-5.85,3.69-5.91,8.14-.05,3.53-1,7.21-4,9.84-1.12,1.17-2.41.7-3.68.36-4-1.05-8-1.87-11.91-3.2-8.09-2.78-16.13-4.32-24.45-1a8.24,8.24,0,0,1-2.9.06c-.42-.26-1.05-.43-1.21-.8-2.92-6.7-9.3-7.54-15.28-9.06-10.05-3.12-20-6.65-29.67-10.7-1.49-.82-3.19-1-4.77-1.53-1.31-.6-1.44-2.07-3.28-2.78-9.25-3.56-17.86-8.53-26.37-13.63-1.7-1-2.36-2.64-3.18-4.23l-.32-.16c-11.38-6.94-12.22-23.31-1.59-32.06a24.14,24.14,0,0,1,11-5.38c1.74-.33,3.6-1,5,.9,6,.64,10.89,3.74,15.35,7.28a16.22,16.22,0,0,0,10.44,3.45c3.76,1.26,2.77,5.4,4.73,7.74a24.43,24.43,0,0,0,2.26,2.29c1,.88,2.48.9,3.49,1.81,3.12,4,8,5.25,12.24,7.4,11.07,5.67,22.38,10.87,33.66,16.14a5.17,5.17,0,0,0,5.19-.14c11.18-6.53,23.25-11.4,34.19-18.39a61.2,61.2,0,0,0,7.3-5.16c.95-.61,2.05-.9,3-1.47a23.54,23.54,0,0,0,3.05-2.38C482.86,220.68,482,216.78,485,215.48Z"/><path class="cls-6" d="M331.41,240.47c8.13,7.1,18.13,10.95,27.51,15.88,2.07,1.09,5,1.11,5.64,4.15-5.22,3.48-8.93,8.86-14.7,11.67-3,.19-6,.11-9,.11H29.33c-2.49,0-5-.08-7.47.09a4.71,4.71,0,0,1-1.94.1c-8.55-1.93-15.21-6.15-18.14-14.9,1.87,1.07,2.22.78,4.37-1.33,1.42-1.38,3.31-3.51,4.89.06,1.09,2.45,3.06,2.45,5,1.38,2.47-1.36,5.06-1.36,7.73-1.36q149.67,0,299.32.17c7.24,0,14.46.26,21.69-.16,1.17-.07,2.63,0,2.78-1.44a2.23,2.23,0,0,0-2.22-2.29c-4.71.53-7.12-2.55-9.51-6.06-1.27,5-3.14,6-7.88,4a17,17,0,0,0-6.77-1.22q-135.69,0-271.38,0a14.23,14.23,0,0,0-6.48,1.74c-5.38,2.61-11.66,2.25-16.93.53-4.83-1.58-2-6-.44-9.3,1.92-.81,3.95-.39,5.92-.4q146.7,0,293.42,0c2,0,4,.47,5.89-.44Z"/><path class="cls-7" d="M469,270.28c9.5-4,19.64-4.92,29.69-4.79,13.36.19,20.76,12.81,22,22.95a3.21,3.21,0,0,1-3.3,3.66c-16.55-.81-33.48,4.1-49.63-3.11-.91-.4-1.8-.84-2.7-1.27C462.69,281.09,465.2,275.55,469,270.28Z"/><path class="cls-8" d="M369.22,261.45l30.13,11.06c5.15,3.93,5.95,6.3,3.88,11.55-2.56,2.22-5.63,2.36-8.82,2.27a196.48,196.48,0,0,0-33.14,2c-9.4,1.24-12.07-1.89-9.36-10.88,1.56-5.19,4.9-9.29,8.19-13.37C362.39,261.23,365.87,261.27,369.22,261.45Z"/><path class="cls-9" d="M369.22,261.45c-9.56.79-12.55,8.58-15.56,15.55-3.63,8.38-1.39,11.13,7.61,11.31-2.61,2-5.79.73-8.67,1.3-1.77.35-3.1-2.25-3.24-4.26-.17-2.47-.53-5.2.32-7.39,1.68-4.38,0-4.72-3.82-4.72q-158.84.12-317.69,0c-2.74,0-5.64.88-8.25-.78l1.06-.32c1.95-.69,4-.34,5.93-.34q159,0,318,0c2.15,0,4.32.21,6.43-.43,3.2-5.09,7.42-8.94,13.23-10.87C366.16,260.59,367.86,260.2,369.22,261.45Z"/><path class="cls-6" d="M.31,241.39c5.94,0,11.88,0,17.82,0,.79,0,1.76-.19,2.17.74a1.42,1.42,0,0,1-.31,1.26c-.82.73-1.43-.17-2.16-.39-4.9-1.52-5.9-.89-5.89,4.13,0,3.91-.82,6.21-5.46,4.56-3.19-1.13-4.13,1.71-5.52,3.62A39.66,39.66,0,0,1,.31,241.39Z"/><path class="cls-10" d="M469,270.28c-1.57,5.75-4.2,11.27-3.9,17.44l-7-.76c1.23-4.09,3-8,3.2-12.41.34-6.42.42-6.42,6.67-5.57Z"/><path class="cls-11" d="M403.23,284.06c.7-4.52-1.34-8.12-3.88-11.55a28,28,0,0,0,3.37.7c6.38.59,10.65,3.74,12.45,10Z"/><path class="cls-6" d="M20.07,233.45c2.88,2,4.9,4,0,5.94Z"/><path class="cls-12" d="M345.46,203.77c-9.71-.25-16.36,4.56-20.48,12.91-4,8-1.2,15.06,4.14,21.45.63.75,1.31,1.45,2,2.18-3.48.09-7,.25-10.45.25q-145.06,0-290.14,0c-1.49,0-3-.12-4.48-.19-1.17-1.47-.6-3.2-.6-4.8q0-108.24,0-216.49c0-1.6-.58-3.33.61-4.8a15,15,0,0,1,6.84-7c1.47-1.2,3.21-.62,4.81-.62q179.25,0,358.52,0c1.61,0,3.33-.54,4.83.57,7.94,2.76,6.9,9.63,7.29,15.85.95,1.58,0,2.88-.74,4.11-5.14,8.2-6.41,16.85-3.18,26.05a38.8,38.8,0,0,0,5,16.94c.2,4.88.33,9.76.27,14.64,0,2.13-.18,4.24-1.69,6-11.36,5-23,9.46-33.75,15.69-6.06,3.51-10.07,8.61-13.28,14.93-9,17.68-11.74,36.75-13.65,56.06-.83,8.32-3.35,16.64-.55,25.07C347,203.33,346,203.47,345.46,203.77Z"/><path class="cls-13" d="M485,215.48c-1.83,2.36-1.1,6-3.91,7.85-6.94-.59-13.9-.25-20.85-.27-27.87-.07-55.75,0-83.62-.05a4.78,4.78,0,0,0-1.45.33c-2.29-2.51-1.38-6.43-3.9-8.84,1.95-3.24,1-6.8.78-10.15-.77-13.5-1.84-27-2.83-40.47-.23-3.13-.88-6.24-.85-9.35s1.4-5,5.21-5q55,.24,110.07.17c3.78,0,5.66,1.68,5.34,5.43-1.09,13.14-2.32,26.27-3.39,39.41C485,201.52,484.19,208.48,485,215.48Z"/><path class="cls-14" d="M408.18,69c-4.4-4.07-4.55-9.53-4.91-14.91,1.44-1.67,2.92-2.7,4.59-.35,1.24-11.61,9-19.78,20.45-21.48,1.54-.23,3.13-.29,4.24.86,2.82,2.94,6.47,3.84,10.24,4.69,5.19,1.17,7.54,5,8.76,9.82.55,2.19.47,4.79,3.45,5.46,2.68,3,2.57,6.63.8,9.74-3.3,5.78-5,12.13-7.48,18.2a30.06,30.06,0,0,1-2.23,3.83c-1.18,4.75-4.89,6.65-9,8.36-4.36,1.82-4.28,2.16-1.45,5.94,2.21,3,5.35,5.44,5.43,9.61-5.65,6.13-12.67,6-19.62,3.47-6.52-2.35-8.77-8.12-9.13-14.65-.16-3-.08-6-.12-8.94C412,81.91,408.91,75.71,408.18,69Z"/><path class="cls-15" d="M441.08,108.81c-2.79-3.88-5.5-7.83-8.41-11.62-1.53-2-1.47-2.75,1.05-3.76,4.72-1.88,9.57-3.78,12.37-8.53.39,1.62-.25,3.47,1.11,4.86-2.28,4.72.21,10.27-2.78,15C443.44,106.27,442.8,107.92,441.08,108.81Z"/><path class="cls-16" d="M408.18,69c1.84,6.45,6.47,12.33,4,19.65L408,90.81Z"/><path class="cls-17" d="M455,53.13l-3.62,1.59c-.4-2.46-.76-4.7-1.15-6.93-.94-5.35-3.81-8.59-9.51-9.06-3.2-.27-6.18-1.31-8.17-4.11a3,3,0,0,0-3.89-1.12,72,72,0,0,0-12.58,5.8c-5.71,3.49-6.47,9.19-7,15.49-1.94-.91-3.85-1.66-5.83-.67-4.23-11.29-1.36-21.43,5.05-31,5.27-1.27,4.57-6,5.72-9.73.11,1.76.22,3.52.36,5.65,6.87-3.9,13.94-5.29,21.29-3.57a27.81,27.81,0,0,1,20,35.32C455.44,51.57,455.23,52.35,455,53.13Z"/><path class="cls-18" d="M401,7.27l-358.68,0H32.87c1.17-1.8,3-1.09,4.56-1.09q180.15,0,360.29,0c1.13,0,2.26.13,3.39.23.06,0,.17.26.15.38A1.33,1.33,0,0,1,401,7.27Z"/><path class="cls-19" d="M331.16,241.44c-1.11,1.49-2.74.91-4.15.91q-150.54,0-301.08,0c2.6-1.65,5.5-.79,8.23-.79q146.52-.09,293,0C328.51,241.49,329.83,241.45,331.16,241.44Z"/><path class="cls-20" d="M26,14.28q0,113.06,0,226.09c-1.91-1.33-1.09-3.34-1.09-5q-.08-108.86,0-217.72c0-1.12.16-2.25.27-3.37,0-.06.27-.15.41-.14A1.63,1.63,0,0,1,26,14.28Z"/><path class="cls-21" d="M475.06,226.51c-3,4.53-8.18,6-12.41,8.78-9.82,6.42-21.11,10.12-30.9,16.61-1.18.78-2.46.4-3.76-.24q-21.53-10.5-43.1-20.91c-1.84-.89-3.49-1.95-3.72-4.25,1.7-1.83,4-1.44,6.08-1.45q40.86-.06,81.72,0C471.08,225.06,473.36,224.67,475.06,226.51Z"/><path class="cls-22" d="M375.15,223.34c.56-2.48,2.6-1.63,4.06-1.64q48.94-.09,97.89,0c1.44,0,3.52-.89,4,1.68l-3.14,2.19a6.62,6.62,0,0,1-3.41.4q-46.72,0-93.45,0c-1.29,0-2.66.35-3.85-.52Z"/><path class="cls-23" d="M377.22,225.39l100.71.13c-.68,1.13-1.85.85-2.88,1H381.17C379.82,226.23,378.19,227,377.22,225.39Z"/><path class="cls-24" d="M351.33,271.37c-1,1.73-2.7.92-4.05.92q-162.16.06-324.31,0c-.67,0-1.33-.11-2-.17,1.53-1.55,3.48-.83,5.22-.83q158.93-.06,317.85,0C346.48,271.3,348.91,271.35,351.33,271.37Z"/><path class="cls-25" d="M484.26,275.08c2.85,4.7,1.84,8-.89,12.58C483.71,282.93,483.94,279.58,484.26,275.08Z"/><path class="cls-26" d="M480,276.24c1.87,3.5,1.91,6.69-.91,10.94C479.5,282.63,479.77,279.44,480,276.24Z"/><path class="cls-27" d="M387.19,272.89v8.88C384.83,278.91,384.75,275.94,387.19,272.89Z"/><path class="cls-28" d="M391.34,273.84v8.55C388.9,279.09,389.76,276.44,391.34,273.84Z"/><path class="cls-29" d="M173.5,166.66c-5.37-.53-6.8-4.69-6.85-8.81q-.36-31.23,0-62.48c.06-5.89,4.73-8.22,9.55-10A27.79,27.79,0,0,1,186.81,84c18,.66,36.05.11,54.07.29,2.48,0,5-.06,7.43.07,3.33.55,6.63-.56,10-.2.57,1.8,1.93,2.45,3.68,2.87s3.63.78,4.41,2.79c1.17,21.82.35,43.67.46,65.5,0,6.21-3.21,9.11-10.81,10.72-25.72.09-51.44,0-77.16.07C177.07,166.15,175.2,165.63,173.5,166.66Z"/><path class="cls-30" d="M217.63,17.13q80.3,0,160.58,0c2.48,0,5,.6,7.43.33,2.68-.3,5.5-.55,6.16,2.47.76,3.46,1.42,7.3-1.09,10.51a4,4,0,0,1-4,1.34,63.9,63.9,0,0,0-21.24.17c-5.63.95-11.19-.88-16.83-.88q-149.63.06-299.24,0c-7.37,0-7.63-.29-7.51-7.54.08-4.93,1.61-6.38,7.21-6.4,17.29-.05,34.58,0,51.86,0Z"/><path class="cls-31" d="M287.49,219.59c-1.57,1.37-3.49.85-5.26.85q-65.56,0-131.14,0c-6.12,0-8.32-2.22-8.42-8.29-.24-16.32.05-16.61,16.56-16.61q62.57,0,125.15.07c3.12,0,7-.89,7.84,3.92-1.09,3.38-.82,6.88-.85,10.34-.08,7.75-1.35,9.06-8.95,9.06H153.28a20.78,20.78,0,0,0-2.74.14c-.62.36.18,1.21-.12.61-.11-.22,0-.27.27-.42,1.08-.68,2.24-.28,3.34-.28q64.58,0,129.14,0C284.62,219,286.18,218.5,287.49,219.59Z"/><path class="cls-32" d="M258.27,84.2c-2.47,2.82-5.8,1.25-8.73,1.7-2-2.29-1.65-5.3-2.29-8a36.51,36.51,0,0,0-16.83-23.56c-9.19-5.67-18.42-5.08-27.2.53C193.66,61,187.9,69.78,186.8,81.31c-.13,1.37.26,3.11-1.7,3.69-3,.24-5.9,1.73-8.93.35-.76-10.8,3.09-20.34,9.38-28.59s14.6-14.6,25.83-16.08c15.32-2,27.37,3.47,36.75,15.11C254.73,64,258.44,73.47,258.27,84.2Z"/><path class="cls-33" d="M256.37,165.5c6.93-2.25,9.45-6.7,9.23-14.21-.54-18.74-.19-37.51-.13-56.26,0-1.74-.75-3.69.89-5.17a8.66,8.66,0,0,1,2,6c0,20.38.08,40.75,0,61.12,0,5.63-2.38,8.23-7.88,9.72C259.33,165.41,257.44,166.86,256.37,165.5Z"/><path class="cls-34" d="M287.49,219.59l-129.74-.11a33.05,33.05,0,0,1-9.93-1H281.51c7.76,0,8.83-1.12,8.91-9,0-3.26.05-6.54.28-9.79.08-1,1-.25,1.52-.15,0,4.28.12,8.56.12,12.84C292.34,215.85,290.94,218.42,287.49,219.59Z"/><path class="cls-35" d="M256.37,165.5c1.33.48,3.07-.44,4.06,1.18-29,.37-58,.43-86.93,0,1.57-1.91,3.73-1,5.6-1Q217.74,165.49,256.37,165.5Z"/><path class="cls-36" d="M447.14,53.37c-3.84-.44-7.62-.11-11.35-.73C439.7,50.35,443.53,50.51,447.14,53.37Z"/><path class="cls-37" d="M424.66,53l-11.81.58C417.1,50.47,420.79,50.41,424.66,53Z"/><path class="cls-38" d="M420.55,55.56a2.32,2.32,0,0,1,1.51,2.79c-.11,1-.58,2.1-1.78,2-1.77-.16-1.94-1.57-1.74-3A1.91,1.91,0,0,1,420.55,55.56Z"/><path class="cls-39" d="M440.13,55.82a2,2,0,0,1,1.95,2c.07,1.29-.53,2.32-1.89,2.3s-1.37-1.16-1.36-2.15S439,56,440.13,55.82Z"/><path class="cls-40" d="M185.1,85c.63-13.9,6.39-25,18.62-32,11.89-6.8,26.19-4.07,35.2,6.25A41,41,0,0,1,249.54,85.9q-29.86,0-59.73.08C188.19,86,186.45,86.36,185.1,85Z"/><path class="cls-41" d="M213.48,105.66A10.27,10.27,0,0,1,225,107.44a12.27,12.27,0,0,1,3,14.24c-2.69,6-.57,11.4.12,16.88,1,7.66.26,9-7.57,9.17-3.78.08-7.61-.62-11.36.56-1.41.45-2.12-.53-2.62-1.67-.59-5.93,1.42-11.52,2.34-17.25.27-1.68.54-3.15-.4-4.63l0,.07c-4.92-8.88-.91-17.83,8.34-18.42C215.71,106,214.37,106.86,213.48,105.66Z"/><path class="cls-42" d="M213.48,105.66l5.92.31c-4.88.14-8.17,2.7-10.74,6.54-2.74,4.09-1.46,8.19-.12,12.3C202.41,118.61,204.63,110,213.48,105.66Z"/><path class="cls-42" d="M208.5,124.74a3.43,3.43,0,0,1,1.68,3.34c-1.13,6.19-2.4,12.36-3.62,18.54-2.64-4.15-.19-8.23.27-12.31C207.18,131.1,207.92,127.93,208.5,124.74Z"/><path class="cls-43" d="M377.26,23.87c-.63,2.88-2.08,5-5.17,5.16-2.94.18-4.8-1.34-4.79-4.38a5,5,0,0,1,4.79-5.32C374.93,19.12,376.33,21.38,377.26,23.87Z"/><path class="cls-44" d="M356.21,23.64c-.38-3.47,2.62-3.82,5.24-3.88,2.87-.07,3.93,1.94,3.8,4.7-.14,3-1.66,4.64-4.68,4.58S356.2,27.09,356.21,23.64Z"/><path class="cls-45" d="M388.24,24.79c-.27,2.77-1.83,4.36-4.82,4.25-2.76-.11-4.19-1.69-4.24-4.42a4.43,4.43,0,0,1,4.52-4.87C386.32,19.74,388.19,21.62,388.24,24.79Z"/><path class="cls-46" d="M238.77,204.59c-1.35,2.33-4.91,3.39-1.75,6.24.39.35-.85,1.42-1.09,1.17-1.87-1.95-3.5-2.21-5.41,0-.32.36-1.91-.63-1.17-1.4,2.71-2.82-.49-3.77-2-5.57,2-.76,5,.44,4.79-3,0-.66,2.4-.75,2.3.05C234,205.58,236.27,204.84,238.77,204.59Z"/><path class="cls-47" d="M197.56,204.4c2.68-.13,5.28,1.89,5.1-2.16-.07-1.37,2.41-1.6,2.34,1,0,1.07-.28,2.13,1.39,1.58,1.9-.62,3.76-1.23,1.71,1.81-.14.21-.63.17-.93.3-3.37,1.39,2.31,3.39-.41,5.15-1.93,1.24-2.25-5.31-4.5-.63-.51,1.06-2.91.13-2.22-.64C202.76,207.75,199.44,206.81,197.56,204.4Z"/><path class="cls-48" d="M179.6,205.82c-3.27,1-2.73,3.21-1.57,5.61-.6.2-1.31.68-1.77.51s-.66-1.07-1.11-1.52c-2.09-2.15-2.25,3.62-4.49,1.11-1.55-1.73,2.77-2.74.53-4.51-.78-.61-2.76-.31-2-2.06.54-1.21,1.73-.19,2.64-.07s.92-.75,1-1.31c.08-1-.09-2.06,1.37-2.15,2-.13,1.39,1.32,1.48,2.37.14,1.81,1.18.95,2,.68S179.3,204.37,179.6,205.82Z"/><path class="cls-46" d="M271.23,204.58c-1.34,2.33-4.9,3.39-1.74,6.24.38.35-.85,1.42-1.09,1.17-1.87-2-3.5-2.21-5.42,0-.31.36-1.91-.63-1.16-1.4,2.71-2.82-.49-3.77-2.05-5.57,2.05-.76,5,.44,4.79-3,0-.66,2.4-.75,2.31,0C266.47,205.57,268.74,204.83,271.23,204.58Z"/></g></g></svg>