<svg xmlns="http://www.w3.org/2000/svg" viewBox="0 0 404.76 405.06"><defs><style>.cls-1{fill:#6563c7;}.cls-2{fill:#c9dcfe;}.cls-3{fill:#5378f4;}.cls-4{fill:#db6453;}.cls-5{fill:#cadcfc;}.cls-6{fill:#c9dcfd;}.cls-7{fill:#35388a;}.cls-8{fill:#c9dcfb;}.cls-9{fill:#000308;}.cls-10{fill:#c7ddfa;}.cls-11{fill:#6883e3;}.cls-12{fill:#01040e;}.cls-13{fill:#0d101e;}.cls-14{fill:#353c4b;}.cls-15{fill:#13161f;}.cls-16{fill:#03081e;}.cls-17{fill:#7a89ce;}.cls-18{fill:#8b94e2;}.cls-19{fill:#7f8ddc;}.cls-20{fill:#8689d7;}.cls-21{fill:#747fd6;}.cls-22{fill:#fefefe;}.cls-23{fill:#fcfcfc;}.cls-24{fill:#c5dcf9;}.cls-25{fill:#303b46;}.cls-26{fill:#151b27;}.cls-27{fill:#191f2d;}.cls-28{fill:#18202b;}.cls-29{fill:#141e24;}.cls-30{fill:#2d3647;}.cls-31{fill:#040a14;}.cls-32{fill:#353d4f;}.cls-33{fill:#050716;}.cls-34{fill:#030516;}.cls-35{fill:#2a3238;}.cls-36{fill:#040b11;}.cls-37{fill:#000001;}.cls-38{fill:#7591e4;}.cls-39{fill:#a4baf1;}.cls-40{fill:#6882e2;}.cls-41{fill:#5378f2;}.cls-42{fill:#1f2127;}.cls-43{fill:#272931;}.cls-44{fill:#788cd8;}.cls-45{fill:#798fe1;}.cls-46{fill:#778de4;}.cls-47{fill:#7692ea;}.cls-48{fill:#7e99e4;}.cls-49{fill:#748adf;}.cls-50{fill:#748de1;}.cls-51{fill:#7d93df;}.cls-52{fill:#748ee0;}.cls-53{fill:#748ce1;}.cls-54{fill:#728ad1;}.cls-55{fill:#7d97e8;}.cls-56{fill:#758ce2;}.cls-57{fill:#748bd5;}.cls-58{fill:#7184de;}.cls-59{fill:#6d88e7;}.cls-60{fill:#7088d4;}.cls-61{fill:#7591d3;}.cls-62{fill:#6f86d6;}.cls-63{fill:#687eda;}.cls-64{fill:#6c81e3;}.cls-65{fill:#677ed6;}.cls-66{fill:#1d202e;}.cls-67{fill:#8bb1fa;}.cls-68{fill:#89aef9;}.cls-69{fill:#f8f9f7;}.cls-70{fill:#b8d8f9;}.cls-71{fill:#b2d2f7;}.cls-72{fill:#accdf4;}.cls-73{fill:#5479f1;}.cls-74{fill:#1d2024;}.cls-75{fill:#21252c;}.cls-76{fill:#1a1e21;}.cls-77{fill:#fbfcfb;}.cls-78{fill:#fcfcfa;}.cls-79{fill:#fdfdfd;}.cls-80{fill:#cadbfd;}.cls-81{fill:#4e70ea;}.cls-82{fill:#fafafa;}.cls-83{fill:#e19a6f;}.cls-84{fill:#00020c;}.cls-85{fill:#6a80d7;}.cls-86{fill:#6f82db;}.cls-87{fill:#e86f5c;}.cls-88{fill:#ef9967;}.cls-89{fill:#5364b8;}.cls-90{fill:#292929;}.cls-91{fill:#b9b9b9;}.cls-92{fill:#e0e0e0;}.cls-93{fill:#464646;}.cls-94{fill:#3e3e3e;}.cls-95{fill:#202020;}.cls-96{fill:#303030;}.cls-97{fill:#141414;}.cls-98{fill:#fcfdfd;}.cls-99{fill:#1a1a1a;}.cls-100{fill:#262627;}.cls-101{fill:#5a5b59;}</style></defs><title>imgAsset 7</title><g id="Layer_2" data-name="Layer 2"><g id="Layer_1-2" data-name="Layer 1"><path class="cls-1" d="M198.2,3A2.88,2.88,0,0,1,201,4c4.16-.61,8.34.59,12.5-.1a8.76,8.76,0,0,1,5,.47c5.43,2.19,11.28,2.29,16.94,3,11,1.31,21.87,2.87,32.82,4.15,17.35,2.08,34.7,4.18,52,6.56,3.76.51,7.54.78,11.28,1.44a16.68,16.68,0,0,1,3.45.28c5,2.19,10.51,1.67,15.73,2.73a81.93,81.93,0,0,0,10.18,1.31c5,.19,8.47,2.1,9.73,7.19.25,7,.55,13.94.56,20.9q.12,97.19.05,194.38v2.49c-.07,8.73-1.56,10.17-10.24,9.85-2.82-.91-5.79-.77-8.68-1.17-3.4-.89-6.94-1-10.37-1.65-3.4.37-6.7-1.39-10.13-.5a6.06,6.06,0,0,1-3.21-.39c-4.15-1.73-8.58-1.86-12.95-2.14-2.15-.13-4.19-.75-6.31-.92-12.18-1.46-24.34-2.94-36.49-4.56-6.24-.83-12.51-1.37-18.72-2.43-7.89-.9-15.78-1.77-23.63-3-3,.19-5.78-1-8.73-.91a8.16,8.16,0,0,1-4.62.06,23.51,23.51,0,0,0-12.21-1.64A6.85,6.85,0,0,1,201,239c-2.36-1.82-5.36-.92-7.94-1.84a75.92,75.92,0,0,1-9.82-1.42c-4.05-1.06-6.22-3.55-6.39-7.75,0-.83,0-1.66,0-2.49q0-58.93,0-117.86a24.85,24.85,0,0,1,.19-4c3.53-4.2,8-7.34,12.21-10.81a2.59,2.59,0,0,1,1.47-.09c7.06,3.32,11.61-.37,15.6-5.55,5.15-6.68,11.17-12.63,17-19.6-14.06,4.1-27.47,7.84-40.81,11.84-2.19.65-4.82,2.43-6.34-1.18-.66-21.78-.21-43.56-.25-65.34a6.39,6.39,0,0,1,.72-2.87c.19-1,.46-1.91.61-2.9.71-4.68,2-5.9,6.82-5.7S193.43,2.94,198.2,3Z"/><path class="cls-2" d="M25.8,128.53c4.66-5.87,7.45-12.84,11.28-19.2A215.72,215.72,0,0,1,133.32,24a265.6,265.6,0,0,1,39.25-14,15.42,15.42,0,0,1,3.48-.14c1.2,1.27.64,2.85.64,4.28q.06,22.92,0,45.83c-1.42,3-4,1.55-6.08,1.49-5.25-.17-10.61-1.28-15.27,2.32-5.6,2.38-7.78,6.65-7.71,12.65.16,13.63.08,27.26,0,40.89a44.35,44.35,0,0,1-1,10.34c-.77,3.2,1.1,6.6,1.08,10.1-.14,29.75-.09,59.5-.08,89.25,0,3.67.06,7.32,2.43,10.44,2.47,4,6.66,4.82,10.76,5.32,16.92,2.09,33.85,4.13,50.75,6.35,19.2,2.53,38.44,4.76,57.62,7.45Q294.57,260.15,320,263a20.71,20.71,0,0,1,7.65,1.93c1,1.38.06,2.17-.86,3-2.72,1.18-5.55.84-8.34.44-17.2-2.49-34.5-4.24-51.72-6.69-16.39-2.32-32.79-4.61-49.23-6.54-16.95-2-33.83-4.39-50.76-6.45-7.28-.89-14.48-1.49-21.76,0-4.62,1-8.16,4.51-12.9,5-2.53-1.23-1.52-3.34-1.12-5.13.87-3.87,2.12-7.64,3.19-11.46.85-3,.17-4.67-3.31-3.62q-10.68,3.24-21.37,6.4c-3.53,1-4.63,3.79-5.61,6.92-1.35,4.33-1.19,9.25-4.82,12.73-6.71-3.11-9.6-8.94-11.18-15.71,0-5.43-3.77-8.44-7.36-11.53-1.24-1.07-3-1.45-4.18-2.68-2.49-4.69-.46-8.59,2.21-12.36A12.88,12.88,0,0,1,81,214.89c2.89-2.33,6-4.71,4.29-9s-5.58-4.06-9.27-4.07a17.28,17.28,0,0,1-6.36-.77,14.62,14.62,0,0,0-13.75,1.3c-3.67.9-7.51,0-11.18,1.26C37.49,206,32.53,211,28.4,217.11c-8,4.47-9.95,11.92-10.11,20.29C14.9,244,12.49,251,9.89,258c-.65,1.73-.62,4.07-3.17,4.51C3.77,250.27,1,238,1.7,225.38a302.55,302.55,0,0,1,3.93-35.29c3.49-20.53,12-39.25,19-58.53C26.14,131,24.66,129.25,25.8,128.53Z"/><path class="cls-3" d="M6.72,262.46q4.3-10.9,8.6-21.81c.48-1.21.75-2.52,2-3.25,1.45.47,2,1.75,2.33,3,2.41,8.5,8.33,14,15.51,18.51A9,9,0,0,1,38,264a69.75,69.75,0,0,0,3,8.93c2.14,5,5.21,9.31,11.08,10.32,4.36.75,6.26,3.51,7.54,7.47,1.22,3.8,1.59,8.25,5.83,10.41,7.17-1.48,14.28-1.07,21.56-.4a84.14,84.14,0,0,1,47.79,19.89c3.08,2.6,3.91,5.95,3.94,9.76.06,7.28-.46,14.59.9,21.82.34,1.8.37,3.64,1.65,5.11,2.08,2.62,3.76,5.24-.08,7.79-30.51,3.91-60.85,3.57-90.83-4a100.47,100.47,0,0,1-28.83-11.9c-12.93-8.07-19.46-19.7-21-34.74-1.7-16.48,1.05-32.34,5.34-48.1C6.19,265.05,6.43,263.75,6.72,262.46Z"/><path class="cls-4" d="M363.82,344.16c-9.69,21.92-27.94,34.28-48.83,43.67-3.32,1.49-6.69,2.88-10,4.31-2.59,1.17-3.5-1-4.77-2.41-8.35-9.1-14.95-19.42-21.19-30-1.76-3.39-3.79-6.67-5-10.31-2.65-5.38-4.36-11.1-6.24-16.75-1.16-3.48-1.41-6.83,1.54-9.68,1.76-1.7.79-2.89-.82-3.94-2.07-1.35-4.35-2.49-5.22-5.09-1.63-9.88-2.18-19.75-.51-29.7.81-4.81,2.08-5.7,6.09-3.27,13.31,8.07,24.66,18.49,35,30a8,8,0,0,1,1.6,7.92c-.16,2.39-.75,4.93,3.35,3.81s5.23,2.58,7.17,4.89a125.63,125.63,0,0,1,14.11,27.67c2.86-13.36,9.58-25.47,21.75-34.22a46.65,46.65,0,0,1,12.57-6.83c4.1-1.47,5.51-.51,5.74,3.87A45.72,45.72,0,0,1,363.82,344.16Z"/><path class="cls-2" d="M280,359.15c6.37,10.7,13.19,21.07,21.58,30.34,1,1.11,1.75,2.42,3.4,2.65-8,4.87-17.12,6.75-26.09,8.83-14.64,3.39-29.56,3.76-44.44,2.93a187.86,187.86,0,0,1-32.71-5c-18.85-4.44-34.78-14-49.43-26.16a5.75,5.75,0,0,0-1.83-.65c-1.95-3.78-.39-6.79,2.11-9.59,4.93-2.14,10.22-3.15,15.31-4.79a43.76,43.76,0,0,1,10,4.54,4.81,4.81,0,0,1,2,4.72c-2.78,7.88-2.57,8.64,4.23,13.51a45.57,45.57,0,0,0,14.54,7.2c4.16.57,8.36,3.14,12.43-.26.92-3.06-1.25-4.9-2.78-7-4.88-6.59-11.1-11.78-17.4-16.91-2-1.61-5.22-2.95-3.53-6.68,2-1.39,4.13-1,6.26-.63,20.49,3.25,41.12,5.37,61.68,8.08,5.77.76,11.16-.76,16.36-3.24C274.24,359.85,276.71,357.63,280,359.15Z"/><path class="cls-1" d="M352,322.43c-10.41,7.88-17,18.28-20.24,30.85-.41,1.59-.81,3.18-1.43,5.65-4.28-11.15-9-21.34-15.39-30.69,1-3.67.42-7.43.61-11.14-.08-8.29-.3-16.58,1.27-24.78.63-3.28.95-6.66,5.13-7.61,1.66-.38,1.83-1.7,1.26-3.15s-1.3-2.7-1.3-4.25c.27-2.88,1.6-5.37,2.92-7.87a15.8,15.8,0,0,1,2.09-2.08c.31-.62.62-1.24.94-1.86-.08-1.27-2.94-.27-1.95-2.4,1.35-1.05,3.2-1.35,4.29-2.8.32-.37.61-.77.9-1.16,3.17-4.18,3.72-4.13,6.6.58,1,1.83,2,3.71,3,5.54.5.86,1.06,1.68,1.63,2.49,5.13,2.66,10.86,2.33,16.32,3,9,1,17.92,2.66,26.95,3.35a6,6,0,0,1,4.37,2c3.07.6,7-.38,7.79,4.34,1.25,7.94.08,10.45-5.24,13.16a97.28,97.28,0,0,0-8.75,5.66c-2.57,3.19-6.32,4.72-9.74,6.63-6.05,3.39-12,7.07-18.09,10.32C353.37,317.58,351.76,319.37,352,322.43Z"/><path class="cls-1" d="M371.67,43.85l.2,1c1.41,2.22,1.46,4.7,1.46,7.21,0,8.47,0,16.94,0,25.41,0,6.52.55,6.82,6.89,7.82,5.84.92,11.95.68,17.4,3.54,6.06,4.56,7.18,10.74,7.14,18q-.36,73.85,0,147.67c0,6.22-2,10.55-7,13.72-1.24-1.65-.16-3.46-.38-5.19q0-77.69,0-155.35c0-7.23-1.93-10.21-7.36-11.74-6.15-.74-12.36-1.16-18.45-2.47a2.29,2.29,0,0,1-1.15-1.38q-.11-23.76,0-47.51C370.49,43.81,370.93,43.56,371.67,43.85Z"/><path class="cls-5" d="M218.28,5l-5.07,0c-2.66-.9-5.89.68-8.18-1.87,14.42-1.76,28.89-3.35,43.41-3,20.29.46,40.64,1.88,60.26,7.24,10.42,2.85,21.37,5.44,30,12.84-1.15,1.27-2.83-.09-4.05.81l-3.11-.14c-5.44-2.34-11.34-2.06-17-2.85q-22.62-3.11-45.33-5.66c-15.38-2.22-30.81-4-46.24-5.9A9.43,9.43,0,0,1,218.28,5Z"/><path class="cls-6" d="M397.62,88.83c-7.46,0-14.68-2-22.06-2.69-2.71-.24-3.92-1.4-3.86-4.45.21-12.28.14-24.56.17-36.84,9.34,8.53,15.85,19,20.61,30.59C394.29,79.86,396.88,84,397.62,88.83Z"/><path class="cls-7" d="M153.45,362.8c-2.78,2.53-2.26,6.12-3,9.3a67.41,67.41,0,0,1-4.26,28.1c-.86,2.24-1.74,4.81-4.92,4.86s-4.72-1.77-6-4.3a47.39,47.39,0,0,1-5.26-26.3c.45-5.4,3.3-7,7.93-7.54,1.2-.14,3.74,1.5,3.26-1.83,1.26-2.52,2-5-.94-6.91,1.22-4.65,5.78-6.46,8.56-9.8,1.71-2,2.74-5,5.65-6,1.12-.38.3-.87.12-1.38-1.14-3.23.89-4.64,3.45-5.26,2.76-.66,8.82,2.23,8.38,3.9-.59,2.23-1.4,4.75-3.58,6.21a10.42,10.42,0,0,0-2.76,2c-1.94,3.12-2.2,6.82-3.58,10.12C155.74,359.79,155.53,361.89,153.45,362.8Z"/><path class="cls-8" d="M352,322.43c-1.81-2.18-1.86-4.49.61-5.89,10.33-5.88,20.78-11.54,31.19-17.27.38,3.27-1.13,6.15-2.2,9-4.37,11.84-9.36,23.42-16,34.21a8.69,8.69,0,0,1-1.76,1.65c2.59-8.54,5.29-17,5.2-26.15,0-3.49-1-4-4-2.73A82,82,0,0,0,352,322.43Z"/><path class="cls-9" d="M371.05,44q0,24.33.05,48.67c1.69,2.91,1.27,6.15,1.27,9.25q.09,73.68,0,147.38c0,9.8-4.29,12.91-13,9.73-1-1-.93-1.64.62-1.75,1.49,0,3,.07,4.48.18,3.65.25,5.13-1.71,5.26-5.07.05-1.33,0-2.66,0-4q0-109.2,0-218.4c-.49-1.06.06-1.19.93-1.05l.36,1A77.57,77.57,0,0,1,371.05,44Z"/><path class="cls-10" d="M390,276.11c-15-1.93-29.93-3.89-44.91-5.73-2.11-.26-4-.32-4.2-3,4.44-2.94,9-.37,13.37.09,9.62,1,19.22,2.32,28.83,3.57,2.43.32,4.93.47,6.76,2.47A2.49,2.49,0,0,1,390,276.11Z"/><path class="cls-11" d="M389.83,273.47l-49-6.13a2,2,0,0,1-1-1.89c1.65-1.78,3.68-1,5.59-.79,12,1.22,24,2.88,35.88,4.64,6.48.95,11.74.31,15.71-5.27a1.71,1.71,0,0,1,1.6.28c-.31,1.31-.63,2.62-1,3.93C395.85,271.14,393,272.54,389.83,273.47Z"/><path class="cls-12" d="M176.05,60.79V9.88c.12-1.32.24-2.63.37-4,2.27.57,1,2.13,1,3.36q.06,35.18.11,70.34a1.16,1.16,0,0,1-1.55,0c-1.39-2-1-4.36-1.07-6.62,0-1.93,0-3.87,0-5.8,0-.55,0-1.1,0-1.66C174.89,63.87,174.93,62.19,176.05,60.79Z"/><path class="cls-13" d="M177.37,9.29c-.32-1.12,0-2.43-1-3.36.22-3.26,1.91-5.3,5.23-5.23A60,60,0,0,1,198.2,3c-3.64,1.62-7.21,0-10.71-.51C179.49,1.38,178.61,1.76,177.37,9.29Z"/><path class="cls-14" d="M370.65,28.9,369.72,30c-2.17-6.09-7.86-4.81-12.39-5.8-2.21-.48-4.6,0-6.72-1.12.44-1,1.59-.44,2.2-1l11.72,1.51C367.79,23.92,370,25.57,370.65,28.9Z"/><path class="cls-15" d="M352.81,22l-2.2,1-15.93-2.1c1-2.1,2.68-.65,4.05-.81Z"/><path class="cls-16" d="M205,3.07c2.51,1.59,5.79-.22,8.18,1.87C209,6,205,4.83,201,4,202,1.89,203.72,3.5,205,3.07Z"/><path class="cls-6" d="M371.05,44q0-7,0-14.05c1.63,4.59.54,9.3.66,14A1.87,1.87,0,0,0,371.05,44Z"/><path class="cls-17" d="M29.71,90.77c-.26,3.22-1.59,5-3.64,7.79C26.15,94.83,27.15,92.88,29.71,90.77Z"/><path class="cls-18" d="M23.33,108.37a10.09,10.09,0,0,1,1.33-7.16C25.81,104.64,24.5,106.57,23.33,108.37Z"/><path class="cls-19" d="M25.8,128.53c.95,3.32.95,3.32-1.15,3,.08-2.05-1.71-3.81-.87-6.24C25.62,125.74,25.33,127.4,25.8,128.53Z"/><path class="cls-20" d="M31.91,87.1a5.85,5.85,0,0,1,5.2-3.94l-4.2,4.71Z"/><path class="cls-21" d="M40.16,80a7.66,7.66,0,0,1,6.08-3.39A8.19,8.19,0,0,1,40.16,80Z"/><path class="cls-2" d="M176.05,72.74l.24,6.9c-3.07,3.9-8,3.43-11.89,5,6.71,3.82,13.24,2,19.62-1.17C189.24,81,194.85,79.4,200.11,77c1.26-.59,3.11-1.62,3.91.19.67,1.51-.93,2.71-2.21,3.46-5.4,3.16-11,5.91-16.18,9.4.55,2.11,3.81,1.09,3.59,3.65-2.28,2.25-4.65,4.42-6.82,6.78-1.22,1.34-2.35,2.22-4.16,1.29-.46-.14-.76-.88-1.35-.34.65,1.83.32,3.67.32,5.48q0,60.54,0,121.07c.08,4.55,2.49,6.89,6.91,7.48,3.1.42,6.23.62,9.31,1.2,2.44,1.29,5.43,0,7.78,1.72l3.82,0c4.09.43,8.23.54,12.16,2a5.15,5.15,0,0,0,4.07-.94,21.21,21.21,0,0,0,8.93,2c7.63.53,15.14,1.94,22.75,2.59,18.16,2.5,36.36,4.76,54.57,6.93,7,1.57,14.25,1.1,21.12,3.26l3.18.15c2.66-.08,5.26.7,7.92.64,3.46.38,6.86,1.24,10.35,1.43,2.9.78,6,.29,8.8,1.78,1.16.13,2.31.24,3.47.38,6.57.76,8.55-.89,8.55-7.39q0-77,0-154.08c0-1.49.13-3,.2-4.46a4.2,4.2,0,0,0,.78.26c1.92,2.62,4.73,3.35,7.76,3.9,9.25,1.67,11.66,4.45,11.67,13.63q.07,72.52,0,145.06c0,9.15-3.21,12.17-12.16,11.21-12-1.29-24.07-2.93-36.11-4.38a13.19,13.19,0,0,1-6.11-2c-1.43-.69-.72-2.94-2.53-3.41-2.09.65-1.73,3.42-3.57,4.33-14.3-3.11-28.89-4.22-43.35-6.14-25.51-3.37-51-6.54-76.58-9.71-14.49-1.79-29-3.84-43.46-5.57-10.89-1.29-13.65-4.61-13.67-15.62q0-50.07,0-100.12c-.37-2.39,2.29-4.63.37-7.13-.76-12.74-.56-25.48-.17-38.21.23-7.55,3.91-10.31,11.47-9.13C169,70.21,173.23,69.27,176.05,72.74Z"/><path class="cls-22" d="M338.82,126.29c0,2.55,0,4.21,0,5.87,0,2.59-1.43,3.53-3.89,3.21-19.31-2.54-38.62-5.14-57.95-7.58-17.2-2.17-34.43-4.14-51.63-6.25-4.43-.54-8.84-1.27-13.26-1.91-1.24-.18-2.46-.72-2.61-2a49.47,49.47,0,0,1,.06-13.37c.26-1.6,1.9-1.68,3.27-1.51q24.57,3.13,49.13,6.29,22.13,2.81,44.24,5.57c9,1.12,18,2.35,27.06,3.19C339.71,118.44,339,122.84,338.82,126.29Z"/><path class="cls-22" d="M339,161c0,8.21,0,8.44-7.83,7.51-20.67-2.48-41.3-5.22-62-7.78-17.23-2.14-34.45-4.29-51.7-6.22-7-.77-8-1.59-8.15-8.77,0-1.83-.07-3.66.06-5.48.21-2.88,1.52-3.79,4.63-3.38,20.31,2.7,40.65,5.16,61,7.69,19.18,2.38,38.37,4.69,57.55,7.13C339,152.55,339,152.69,339,161Z"/><path class="cls-2" d="M319.94,194.07c0,1.49,0,3,0,4.48.11,3.12-1.55,4.21-4.39,3.82-16.66-2.24-33.29-4.81-50-6.67-11-1.22-21.92-2.9-32.91-4.07-4.41-.48-5.79-2.45-5.51-6.43a29.48,29.48,0,0,1,0-3c1.62-8.75.3-8.18,8.88-7,14,2,28.15,3.55,42.24,5.24,11.79,1.42,23.58,2.85,35.39,4.1,4.71.5,7.27,2.37,6.25,7.48A10.16,10.16,0,0,0,319.94,194.07Z"/><path class="cls-23" d="M189.22,93.66c-1.85-1.66-4.83-.81-7-3.28l21.5-12.46-.47-.84c-8,3.18-16.43,5.7-24,9.75-6.64,3.54-11.59-.76-17.43-1.44,4.33-3.51,9.91-3.29,14.45-5.75h1.18l47.87-14,.71,1q-12.53,14-25.07,27.88c-1.6,1.79-3.56,1.34-5.53.79S191.3,94.21,189.22,93.66Z"/><path class="cls-24" d="M303,70c1.57,15.53-15.48,29.44-32,24.72-20.22-5.79-31-27.16-22-44.8,5.45-10.68,18.31-15.41,30.67-11.7C292.85,42.13,304.35,57.16,303,70Z"/><path class="cls-25" d="M177.28,99.62l1,2.11q-.13,38.07-.28,76.15c0,15.77,0,31.54,0,47.3,0,7.55.75,8.33,8.18,9.68,2.75.5,5.69-.13,8.27,1.37-.12.64-.76.71-1.16,1.05-3.1-.31-6.2-.54-9.28-1-4.09-.56-7-2.53-7.6-7,.71-1.77.36-3.61.36-5.42q0-59.47,0-118.95C176.78,103.19,176.27,101.32,177.28,99.62Z"/><path class="cls-26" d="M269.41,11.73l46.25,5.56c4.27.52,8.54,1,12.8,1.57,1.2.18,3.32-.7,3.11,1.93l-63.51-8.06C268,11.7,268.38,11.29,269.41,11.73Z"/><path class="cls-27" d="M307.58,251.55c-18.31-2-36.59-4.1-54.77-7,.17-.63.8-.7,1.23-1l55.83,7C309.81,252.5,308.53,251.64,307.58,251.55Z"/><path class="cls-28" d="M269.41,11.73l-1.35,1Q244.51,9.84,221,6.92c-1.17-.15-2.9.25-2.68-1.93q23.15,2.89,46.28,5.81C266.19,11,267.79,11.42,269.41,11.73Z"/><path class="cls-29" d="M254,243.53l-1.23,1-23.68-2.43c-.22-.84.28-1.24,1-1.54Z"/><path class="cls-30" d="M307.58,251.55l2.29-1c5.1.57,10.21,1.08,15.3,1.77,1.29.17,3.24-.44,3.48,1.86A137,137,0,0,1,307.58,251.55Z"/><path class="cls-31" d="M217.21,240.34a37.25,37.25,0,0,1-12.16-2C209.33,237.63,213.57,237.12,217.21,240.34Z"/><path class="cls-32" d="M349.89,257.17c-3.38-.75-7-.14-10.23-1.64.4-1,1.44-.46,2.07-.91,3.53.35,7.11.35,10.53,1.47C351.82,257.21,350.59,256.6,349.89,257.17Z"/><path class="cls-33" d="M193.25,237.28l1.16-1.05c2.27.7,5.43-1.45,6.82,2.11C198.55,238.16,195.75,238.82,193.25,237.28Z"/><path class="cls-34" d="M230.08,240.56l-1,1.54c-2.64-.84-6,.34-7.85-2.7Z"/><path class="cls-35" d="M349.89,257.17l2.37-1.08c2.59.26,5.3-.33,7.71,1.14l-1.07.95Z"/><path class="cls-36" d="M341.73,254.62l-2.07.91c-2.62-.3-5.38.28-7.83-1.2C335.19,252.47,338.42,254.91,341.73,254.62Z"/><path class="cls-7" d="M159.27,347.18c.2-3,4.33-1.77,5.32-5.39.67-2.42.13-2.21-1-3.32-1.64-1.62-4.24.07-5.62-1.93-1,.85-2.37,1.52-2.87,2.6-.84,1.84,1.49,2.19,2,3.09-6.5,4.42-10.59,11.38-16.88,15.95-3.44-3.25-2.16-7.74-2.69-11.6a104.23,104.23,0,0,1-.45-17.41,8.56,8.56,0,0,0-3.09-7.36c-13.09-11.72-28.62-17.83-45.84-19.57-6.71-.68-13.66-3-20.37.53a3.64,3.64,0,0,1-3.36-.45,3.26,3.26,0,0,1,.16-2.9c2.09-4.3,5.89-6.56,10.05-8.37,8.58-3.71,17.46-6.73,25.88-10.85.47-.55-.58-.77-.07-.35.21.18.19.37-.1.48-9.29,3.74-18.48,7.82-28.7,8.39-1.35-1.57-1-3.17-.09-4.79,2.65-1.17,5.57-1.31,8.28-2.22,1.14-.76,1.49,2.09,2.79.59a14.55,14.55,0,0,1,5.52-2.16c1.78-.45,3.64-.78,4.19-3,1.17-3.42,2.61-6.79,1.75-10.54a3.19,3.19,0,0,1,.74-1.1c2.23-1.6,1.44-4.4,2.55-6.44a1.43,1.43,0,0,1,1.27.11c1.54-4.86,3.29-9.67,4.55-14.6a7.51,7.51,0,0,1,5.8-5.95c7.63-2.17,15.2-4.59,22.8-6.87,1.39-.42,3-1.21,4.19.11s.35,2.84-.05,4.26q-2.41,8.59-4.85,17.19a5.42,5.42,0,0,1,0,2.88c-.76,3.6-2,7.06-3,10.6-.7,3-1.16,6.19-4.92,7.2,11.15,1.57,21.84,4.2,31.49,10.07,6.45,3.93,10,9.59,9.84,17.23-.1,5.1.69,10.25-.61,15.31-2.31,2-3.19-.37-4.12-1.58-3.54-4.59-7.41-8.9-11.11-13.36-9.12-11-21.52-16.1-31.11-18.5,16.15,2.42,29.67,15,41.1,30.49a21.68,21.68,0,0,0,4.15,4.91,325.84,325.84,0,0,1,20.94,32.09,8.21,8.21,0,0,1,1,3.41,6.05,6.05,0,0,1-2.08,3.63c-4.9,2.52-2.66,5.32-.31,8.12.27,1.5-.75,2.07-1.85,2.59a2.44,2.44,0,0,1-1.39-.05c-.28-.27-.36-.52-.24-.76s.21-.36.31-.36c-.74-2.72-1.1-5.56-5.24-5.08-2.81.32-3.35-3.27-5.63-4.16C164.5,355.15,160.68,352.18,159.27,347.18Z"/><path class="cls-37" d="M34.48,259.39c-7.65-3.11-12.24-9-15.13-16.49-.71-1.82-1.36-3.67-2-5.51.55-3.23-.13-6.52.75-9.78,1.44-5.36,5.19-8.51,9.7-11.1,2.09-1.84,4.69-1.58,7.06-1.32,8.34.91,13.86-2.84,17.53-10A8.41,8.41,0,0,1,55,201.73c3.71-3.6,8-4.32,12.76-2.49a21.89,21.89,0,0,0,9.76,1.25c4.35-.39,7.86.53,9.39,5.21s-1,7.53-4.54,9.85a13.62,13.62,0,0,0-6.31,11.21c-.08,1.17-.14,2.36,1.3,2.85a.77.77,0,0,1-.05,1.14c-2.45,1.41-5.77-.72-7.93,1.94a3,3,0,0,1-2-.53c-4.64-3.92-4.4-7.09.78-10a7.28,7.28,0,0,0,3.54-4c1.14-3.22,0-4.58-3.33-4.19a8.22,8.22,0,0,1-2.94.28c-3.54-.87-3.8.82-4.1,3.91a36.26,36.26,0,0,1-6.33,17.44,2,2,0,0,1-1.57,1.25c-5.31-1.95-9.51-.2-13,5.45-2.51,4-3.47,8.58-4.87,13-.31,1,.21,1.74.58,2.62C37,259.85,36.09,260.14,34.48,259.39Z"/><path class="cls-38" d="M176,65.71V67c-1.85,1.56-4.05,1.32-6.18,1.08-2.81-.32-5.6-.78-8.39-1.16C153,65.7,150,68.2,149.88,76.62c-.09,8.8,0,17.61,0,26.41,0,33.37,0,66.75,0,100.12,0,11.29-.19,22.58.28,33.86a3,3,0,0,1-1,1.61c-2.84-2.86-2.85-6.54-2.85-10.18q0-47.06,0-94.1c0-2.29.8-5.18-4-4.2,4.12-2.74,4-6.31,4-10-.11-14.93-.07-29.87,0-44.8,0-7,2.18-10,8.91-12.64C162.38,62.08,169.5,61.88,176,65.71Z"/><path class="cls-39" d="M130.57,255.39c-.09-.75-.37-1.55.53-2,9-5.19,18.43-8.26,28.92-6.94,11.45,1.44,22.89,3,34.34,4.49,12.28,1.55,24.57,2.93,36.84,4.5,11,1.4,21.89,3,32.84,4.45,11.11,1.5,22.19,3.24,33.33,4.4,9.85,1,19.58,3.16,29.53,3.12a2.05,2.05,0,0,1-1.11,2c-4.05,2-8.2.5-12.2,0-52.35-6.77-104.67-13.8-157.06-20.29-6.65-.82-12.36,1.64-18.12,4.32C136,254.53,133.69,256.75,130.57,255.39Z"/><path class="cls-40" d="M149.17,238.62l.27-1.56c15.61,7.11,32.66,6.35,49.1,8.65C238.28,251.27,278.15,256,318,261.09c2.72.35,5.72.15,7.88,2.44.14,1.19,2.73-.11,2,2-22.33-2.94-44.66-6-67-8.8s-45-5.52-67.52-8.34c-11.82-1.49-23.62-3.19-35.45-4.68C154.18,243.21,151.23,241.76,149.17,238.62Z"/><path class="cls-41" d="M55,201.73c-3.91,11.4-9.42,15.21-21.33,14.77-2-.07-4,0-5.95,0C31.74,207.65,44.05,199.17,55,201.73Z"/><path class="cls-1" d="M176,65.71l-20.81-3c4.85-5.15,10.93-2.4,16.54-2.52a25.55,25.55,0,0,1,4.3.65Z"/><path class="cls-42" d="M98.66,259.2l-1.72.26c-4.41-1.12-5.81-5.13-7.9-8.42-1-1.58-1.61-3.41-4-2.31a1.57,1.57,0,0,1-1.13-.88c-.47-3,.9-4.57,3.75-5.07a1.79,1.79,0,0,1,1.34.82C90.27,250,94.17,254.78,98.66,259.2Z"/><path class="cls-43" d="M89,243.6l-1.69-.29c-2.09-5.14-6.29-8.65-9.86-12.64v-1.06c7.07,1.64,9.37,7.84,12.53,13.19A6.75,6.75,0,0,1,89,243.6Z"/><path class="cls-44" d="M139.25,133.36c-6.36,2.15-3.22,7.6-4.13,12C131.43,139.28,132.86,135,139.25,133.36Z"/><path class="cls-45" d="M111.85,148.34c2.59-2.4,4.32-3.88,8-3.2C117.2,146.84,115.33,148,111.85,148.34Z"/><path class="cls-46" d="M112.46,85.65c2.53.55,3.56,2.44,5.34,4.72C113.6,89,113.6,89,112.46,85.65Z"/><path class="cls-47" d="M68,156.86c2-1.5,4-1.44,7-.25C72.09,158.15,70,157.51,68,156.86Z"/><path class="cls-48" d="M134.75,149.11a13.87,13.87,0,0,1,.18,8C132.7,154.7,133.11,152.52,134.75,149.11Z"/><path class="cls-49" d="M120.06,94.27a9.64,9.64,0,0,1,4.27,6.35A9.07,9.07,0,0,1,120.06,94.27Z"/><path class="cls-50" d="M90,155.39a9.35,9.35,0,0,1,7-2.25C95.36,155.11,93.35,155.65,90,155.39Z"/><path class="cls-51" d="M45.27,150.73l5.89,2.32a6,6,0,0,1-6.31-1Z"/><path class="cls-52" d="M128.47,202.65c-.93-2.18-.38-4.06,1.21-7C130.69,199,129.22,200.81,128.47,202.65Z"/><path class="cls-53" d="M132.81,179.7c-1.52-2.1-.53-3.95.08-6.43C135.27,175.9,132.44,177.77,132.81,179.7Z"/><path class="cls-54" d="M122.72,143.16c2-2.59,4-3.45,7.14-4.83A9.45,9.45,0,0,1,122.72,143.16Z"/><path class="cls-55" d="M85.48,156.08c-2.2.36-4.2,2.25-6.91.63C81,154.75,83.3,155.59,85.48,156.08Z"/><path class="cls-56" d="M132,122.8a19.87,19.87,0,0,1-2.73-8.41C131.91,117.07,132.41,119.26,132,122.8Z"/><path class="cls-57" d="M128.36,110.27a9.9,9.9,0,0,1-3-6.47A6.85,6.85,0,0,1,128.36,110.27Z"/><path class="cls-58" d="M27.48,135.5c2.6,2.17,3.16,4.28,3.83,6.35C29,140.78,27.82,139.07,27.48,135.5Z"/><path class="cls-59" d="M131.83,184.83a6.05,6.05,0,0,1-1.22,6.48C130.17,188.74,129.85,186.73,131.83,184.83Z"/><path class="cls-60" d="M133.73,168.65a11.45,11.45,0,0,1,0-6.57C135.19,164.09,135.19,164.09,133.73,168.65Z"/><path class="cls-61" d="M92.2,75.19c2.29-.78,4,.28,7,1.69C95.65,77.83,94,76.06,92.2,75.19Z"/><path class="cls-62" d="M123.83,219.34c1.08,2.38,0,4.07-1.37,6.68C121.38,222.75,123.33,221.19,123.83,219.34Z"/><path class="cls-63" d="M132.41,126.19c1.85,2.92,2.2,4.83,1.53,7.13C131.7,131.64,132.43,129.48,132.41,126.19Z"/><path class="cls-64" d="M101,152.56c2.6-2.33,4.53-2.74,7.84-3.14A12.37,12.37,0,0,1,101,152.56Z"/><path class="cls-65" d="M40,149.06c-2.61.56-3.73-1.36-6.18-3.16C37.31,145.89,38.3,148,40,149.06Z"/><path class="cls-66" d="M34.48,259.39c.31-.08.76-.06.93-.26.56-.7-.21-.64-.54-.78-1.87-.76-1.47-1.84-.44-3a65.89,65.89,0,0,0,8.88.71c6.41.22,8.69,2.41,9.64,8.9a2.38,2.38,0,0,1-1.6,1.64c-1.82-.36-2-2-2.63-3.33a5.82,5.82,0,0,0-4.58-3.41c-4-.67-5.29.63-4.32,4.53.28,1.12.7,2.21,1.07,3.31C45,280.05,49,282.84,62,283c3.18,0,6.67-1.14,9.51,1.44,1.29,1.21,0,2.42,0,3.63-2.75.37-5.36-.86-8.15-.6-2.46.24-3.25,1-2.28,3.42a57.76,57.76,0,0,0,4.39,9.31c-.33.7-.67,1.4-1,2.09-4.7-2.87-4.89-8.25-6.72-12.63-1.12-2.71-2.18-4.3-5.27-4.83-8.35-1.42-11.46-7.93-14.09-15C37.06,266.38,37.38,262.27,34.48,259.39Z"/><path class="cls-67" d="M82.63,321c-7.95-7-17.33-11-27.33-14-9.77-2.93-19.84-4-29.84-5.54C38.48,298.5,77.9,309.38,82.63,321Z"/><path class="cls-68" d="M121.39,321.17A36,36,0,0,0,98,320.82C104.45,316,115.49,316.17,121.39,321.17Z"/><path class="cls-2" d="M322.86,276.28A7.29,7.29,0,0,0,324,280c3,5.17,3,5.33-2.61,6.27-2,.33-2.11,1.41-2.51,3-2.32,9.24-1.87,18.66-2,28-4,1.76-8.2,2.82-12.65,1.94,1-3.3.17-5.94-2.24-8.52-10.09-10.82-21-20.57-33.57-28.53-3.51-2.22-4-1.47-4.53,2.33-1.45,9.95-.34,19.8.28,29.69-2.21,1.17-4.58.66-6.82.4-18.73-2.24-37.39-5-56.1-7.36a26.3,26.3,0,0,1-3.38-.79,6.4,6.4,0,0,1-3.81-3.71c-3.63-7.37-9.25-12.91-16-17.4-13.7-9.15-28-16.7-45.23-15.74-4.28.23-4.3-.06-5.26-2.81,10.65-8.49,21.9-14.34,36.39-12.43C214.41,261,264.84,268,315.4,274,318,274.3,320.74,274.31,322.86,276.28Z"/><path class="cls-22" d="M197.19,305.26c13.84,1.89,27.68,3.83,41.53,5.66,6.68.88,13.39,1.62,20.09,2.28,1.82.18,3.64.15,5.31,1a39.65,39.65,0,0,0,3.41,2.83c1.78,1.18,4.46,1.76,5,3.81.64,2.37-2.41,2.69-3.72,4-1.94,2-1,4.14-.39,6.07a130.17,130.17,0,0,0,6.7,18.2c1.23,3.26-1,4.46-3.33,5.62-6.83,3.45-14.19,3.45-21.44,2.64-19.76-2.23-39.45-5.16-59.19-7.56-1.78-.22-3.68-.25-5.07-1.7-1.06-2.5.86-4,2-5.73,3.9-5.78,7.6-11.6,8.94-18.64A31.26,31.26,0,0,0,197.1,311C196.7,309.12,195.79,307.13,197.19,305.26Z"/><path class="cls-1" d="M186.12,347.12c6.09,2.36,12.63,2,18.94,2.95,14.72,2.19,29.48,4.07,44.25,5.81,7.6.9,15.25,1.07,22.42-2.53,1.82-.92,3.71-1.65,3.4-4.22l4.84,10c-4,.82-7.18,3.27-10.83,4.77-7.16,2.94-14.64,2.12-22,1-18.58-2.85-37.36-4.27-55.86-7.68-1.41-.26-3-.5-4.22.79-3.33.39-2.12-2.47-2.83-3.95l-1.16-2.85C182.39,348.6,183.33,347.18,186.12,347.12Z"/><path class="cls-69" d="M304.18,319.22c4.17-1,8.29-2.23,12.65-2,.05,2.61.08,5.21.16,7.81,0,1.55,0,3-2.07,3.16-2.18-2.87-3.58-7-8.7-3.51C304.13,326.17,303.51,325.08,304.18,319.22Z"/><path class="cls-70" d="M295.49,340.66c-5.45-5.92-23-41.08-24.19-48.28C279,308.66,287.12,324.73,295.49,340.66Z"/><path class="cls-71" d="M361.55,326.09c-7.64,13.49-16.38,26.38-22.84,40.56C343.55,351.6,352.37,338.75,361.55,326.09Z"/><path class="cls-72" d="M310,364l8,12-1.05.7c-3.52-3.22-5.3-7.74-8-11.58C309.27,364.72,309.37,364.13,310,364Z"/><path class="cls-71" d="M310,364l-1,1.09c-2.49-4-5.44-7.68-6.76-12.33C305.68,355.93,307.6,360.14,310,364Z"/><path class="cls-73" d="M159.27,347.18,168.42,358c-4.59,2.86-9.8,3.76-15,4.79C156,357.82,156.16,352,159.27,347.18Z"/><path class="cls-74" d="M184.25,354.08c.84,1.4,1.11,3.19,2.83,3.95,2.53,4.72,7.68,6.53,11.27,10.1a147.65,147.65,0,0,1,12.17,13c1.59,2,3.27,4.16,1.8,7a1.16,1.16,0,0,1-1.29.17c-1.49-2.53-2.08-5.52-4.39-7.65s-3.57-5.74-7.42-2.32a1.3,1.3,0,0,1-1.8-.28c-.82-1.24.28-2.13.79-3.19-1.48-.18-2.46,2.24-3.91,1s-.19-2.47.56-3.48c1.78-2.41-.13-3.55-1.53-4.91-1.77-1.71-3.58-2.23-5.71-.54s-4.57,3.47-7.42,1l2-1.56c4.85-3.71,4.85-3.71,0-9.39Z"/><path class="cls-75" d="M179.29,367.26l.07,1.22c-.35,10,7.78,12.31,14.44,15.94,1.84,1,4.21,1,5.57,2.89.19.94-.39,1.29-1.14,1.51a47.63,47.63,0,0,1-17.73-9.43C175.87,375.51,175.57,372.62,179.29,367.26Z"/><path class="cls-76" d="M198.23,388.82l1.19-.86c3.92-1.71,7.81.15,11.72.11l1.18.07c-1.83,3.65-5.07,2.19-7.83,2A42.82,42.82,0,0,1,198.23,388.82Z"/><path class="cls-77" d="M325.83,263.53q-42.65-5.5-85.28-11-40.68-5.18-81.38-10.17a14.76,14.76,0,0,1-9.73-5.32,23.63,23.63,0,0,1-1.18-7.8q.09-48.85.05-97.7,0-28.11,0-56.23c0-8.23,3.78-11.43,11.93-10.19,5.24.79,10.46,1.8,15.8,1.82,0,1.93,0,3.85,0,5.78-4.21-.66-8.4-1.53-12.63-1.93-5.79-.53-8,1.76-8.08,8.36-.08,13.23,0,26.45.09,39.68.7,1.61-2.19,2.07-1.2,3.77,1.83,1.6,1,3.74,1,5.63q.08,48.88,0,97.75c0,8.13,2.07,11,9.95,12.14,14.21,2,28.5,3.46,42.74,5.27,11.61,1.47,23.2,3.18,34.81,4.68s23.26,2.8,34.88,4.29c14.72,1.87,29.44,3.76,44.13,5.83,3.12.45,7.21-1.44,9,3.06C329.77,263.36,327.81,263.47,325.83,263.53Z"/><path class="cls-78" d="M336.93,260.35c10.75.34,21.29,2.53,32,3.54,4.11.39,8.18,1.2,12.29,1.4,7,.34,8.58-1.28,8.58-8.23V167.84c0-18.45-.27-36.89.09-55.33.25-12.52-2.28-13.27-13.5-14.63-3.74-.45-5.13-1.38-4.47-5,6.07-.42,11.91,1.47,17.91,1.73,5.78,1.07,7.35,5.55,8.39,10.42a14.19,14.19,0,0,1,.05,3q0,75.74,0,151.47c0,1.58.65,3.33-.67,4.76-3.08,6.76-5.66,7.86-13.89,6.75-14.57-2-29.17-3.72-43.76-5.56Q338.41,262.9,336.93,260.35Z"/><path class="cls-77" d="M322.86,276.28c-9.51-1.11-19-2.16-28.51-3.33-11.94-1.49-23.88-3.06-35.81-4.63-11.12-1.46-22.24-3-33.36-4.45q-17.67-2.31-35.34-4.52c-8.35-1.06-16.86-1.4-25-3.27-11.61-2.67-21.06,1.67-30.45,7.25-2.28,1.35-4.57,2.67-6.86,4l-.6-.34,3.66-11.6a24.83,24.83,0,0,0,4.05-1.74c9.45-6.14,19.6-6.79,30.52-5.2,20.75,3,41.61,5.31,62.41,8.05,18.5,2.44,37,5.15,55.47,7.59,14.24,1.88,28.51,3.53,42.77,5.28Q324.32,272.82,322.86,276.28Z"/><path class="cls-79" d="M345.92,280.25c-1.2-2.71-2.4-5.42-3.87-8.76,11.72,1.51,22.79,2.93,33.85,4.37,5.91.77,11.81,1.58,17.71,2.38,1.39.19,2.65.61,2.87,2.25s-.94,2.31-2.14,3q-21,11.94-41.95,23.89c-.25.15-.64.08-1.2.13-.46-2.38-.94-4.77-1.41-7.17-3.84-1.87-1.65-3.51.36-4.75,4.07-2.51,8.46-4.49,12.36-7.3,1.18-.85,3-1.55,2.79-3.18-.26-2-2.44-1.91-4-2.2C356.21,281.91,350.82,282.53,345.92,280.25Z"/><path class="cls-80" d="M345.92,280.25a94.19,94.19,0,0,1,18.56,2c1.35.25,2.67.47,3.08,2,.48,1.77-.71,2.85-2,3.62-4.77,2.89-9.56,5.74-14.44,8.44-1.89,1.05-3.67,1.76-1.36,4.05a17.73,17.73,0,0,1-2.93-.25c-3-.73-5.21-1.85-1.55-4.76,3.08-2.47,3-5.46,1.82-8.86A44,44,0,0,1,345.92,280.25Z"/><path class="cls-81" d="M397.53,264.26q0-78.24,0-156.48c0-6-1.79-10.73-7.71-13.16,4.21-.32,8.13,3.55,8.88,8.85a13.07,13.07,0,0,1,.06,2q0,79.44-.07,158.86Z"/><path class="cls-82" d="M142.76,383.21c1.53,2.13,6.32.39,5.24,4-1,3.34-4-1.48-6,.23,1,2.32,5.09,1.07,5.11,3.78a20.27,20.27,0,0,1-3.52,10.7c-1.82,2.9-4.56,2.09-6.08-.32-5.61-8.91-7.25-18.76-5.87-29.09.48-3.59,3.85-3.89,6.52-4.27,3-.42,2,2.46,2.38,4,.54,1.94.93,2.34,2.87,1.1a3.74,3.74,0,0,1,5.44,1.81,9.49,9.49,0,0,1-.46,8.18C147.52,384.77,144.94,382,142.76,383.21Z"/><path class="cls-83" d="M150.23,366c-1.84,1.34,1,6-3.38,5.68-1-.07-5.95,2-4.42-2.8.85-2.64-1-6.81,2.8-7.64C146.79,360.86,150.82,361.56,150.23,366Z"/><path class="cls-84" d="M177.28,99.62q-.12,48.29-.22,96.57c0,9.45,0,18.91,0,28.37,0,1.6.56,3.34-.68,4.78q-.08-65.43-.12-130.87a2.73,2.73,0,0,1,.35-.85c.21.19.51.33.55.52A10.31,10.31,0,0,1,177.28,99.62Z"/><path class="cls-85" d="M161.22,115.23c.77-2.35,2.51-3.77,5.08-5.58C165.35,112.87,163.35,114.11,161.22,115.23Z"/><path class="cls-86" d="M154.23,122.62l-1.74.23c0-.44-.05-1,.19-1.29.85-1,1.82-1.81,2.75-2.71,1.06-.14,2.27-.3,1.15,1.32A19.36,19.36,0,0,1,154.23,122.62Z"/><path class="cls-87" d="M255.08,81.82c-5.69-7.46-8.67-15.64-6.1-25C252.77,43,266.35,36,279.85,40.85c17.44,6.25,25.94,25.27,18,40.34-.91,1.72-1.69,3.63-3.76,4.4-3.36-.71-4.72-3.94-7.17-5.8-2.75-2.1-5.67-2.52-9-3.15C269.33,75,262.06,77.32,255.08,81.82Z"/><path class="cls-79" d="M255.08,81.82l5.49-4.26c3.41-2.65,6.9-4.66,11.34-2.17a4.4,4.4,0,0,0,2.92.36c9.32-2.32,14.37,3.59,19.26,9.84-5.94,7.55-19.49,10-28.28,4.89C261.85,88.16,257.67,85.92,255.08,81.82Z"/><path class="cls-3" d="M126.91,267a.51.51,0,0,1,.6.34c3.09,1.78,6.44.51,9.65.81,22.81,2.11,41.27,12.26,55.63,30a63.52,63.52,0,0,1,4.4,7.14c5.24,16.31-.89,29.63-11.07,41.86-1.55,1-2.82,2.16-3,4.12l-20.88-31.92c-.53-1.1.15-1.72.91-2.31.12-5.12.26-10.25.33-15.37.1-7.93-3.75-13.48-10.55-17.17-10.32-5.61-21.45-8.48-33.48-9.82C123.09,273.14,127.22,272,126.91,267Z"/><path class="cls-1" d="M52.25,265.37c-2-7.64-3.5-8.51-11.42-8.35-2.07,0-5.24,2.38-6.4-1.68,1.14-3.57,2.14-7.19,3.48-10.68a18.54,18.54,0,0,1,7.5-8.83c2.91-1.91,5.61-3.18,8,.68,5.63-.11,11.11-.79,15.86-4.22.23-2,1.19-2.93,3.31-2.46,1.61.35,3.25.56,4.88.84,4.92,2.94,9.28,6.32,9.86,12.64a5.48,5.48,0,0,0-3.1,5c.89,5.53,3.86,10,7.43,14.07,1.05,1.19,2.54,2.15,2.4,4.05,4.1,3.87-.06,7.28-.6,10.89a1.57,1.57,0,0,1-1.31.41,18.54,18.54,0,0,1-2.82-.91c-3.8-1.45-7.1-1.35-10.72,1.26-5.18,3.72-22.78-1.35-25.77-6.95A6.37,6.37,0,0,1,52.25,265.37Z"/><path class="cls-88" d="M71.49,284.47c-4.79-.09-9.6,0-14.37-.32-7.47-.59-13.27-3.77-15.79-11.38-.72-2.19-2.11-4.3-2.24-6.5-.15-2.49-4-5.78.23-7.49,5.37-2.16,9.39.07,11,5.06.31.92.68,1.82,1,2.73,3.12,10.68,12.89,10,20.94,12.22a7.17,7.17,0,0,0,7.54-2.23c3.62-3.71,7.24-1,10.75.69-.27,2.55-2.43,2-4,2.39-2.4.11-4.05,2-6.19,2.67C77.79,284.39,74.6,284.27,71.49,284.47Z"/><path class="cls-82" d="M211.14,388.07c-3.93,2.36-7.81-.08-11.72-.11-5.47-2.3-10.87-4.62-15.85-8-4.41-3-6.57-6.27-4.21-11.49l.84-.53c2.77.14,5,0,7.38-2.44,4-4,6.11,1.44,8.86,3.13,3.3,2,0,3-.88,4.35a23.56,23.56,0,0,1-1.78,2c2.07.72,2.54-.83,3.46-1.45s1.49-2.73,3.08-1.37c1.75,1.49-.51,2.08-1,3.05s-1.91,1.3-1.75,3c2.5-.19,3-3,5.29-3.73C205.54,379,211.67,381.39,211.14,388.07Z"/><path class="cls-1" d="M65.45,300.23c-2,.84-2.26-.94-2.69-2-1.59-3.75-3-7.57-4.92-12.6,5.06,1.78,9.72-1.44,13.65,2.42,8.79-1.41,17-4.93,25.54-7.19,1.55-.41,3.08-.88,5.9-1.7-7,5.53-14.31,7.22-21,10.16C75.81,292,68.87,293.48,65.45,300.23Z"/><path class="cls-89" d="M163.12,317l-.91,2.31c-4.7-5.57-9.5-11.07-14.07-16.74-7.89-9.77-18.57-14.75-30.24-18.17-2.37-.69-4.86-1-7.34-2.62,2-1.67,3.82-.35,5.52,0,17.07,4,30.44,13.43,40.56,27.7C158.54,312.2,160.36,315.05,163.12,317Z"/><path class="cls-88" d="M85.28,248.36l1.78-3.07c3.08,5.17,5.21,10.57,9.88,14.17,1.86,2.8,1.53,5.13-1.5,6.86-4.19-2.8-7-6.76-9.39-11.08C84.88,253.13,83.63,250.86,85.28,248.36Z"/><path class="cls-83" d="M182.2,357c3.37.39,4.33,3.4,6.08,5.56-2.25.93-2.67,4.77-6.1,3.83a1.94,1.94,0,0,1-.42-.25C176.8,361.05,176.81,361.05,182.2,357Z"/><path class="cls-90" d="M85.28,248.36c-.66,6,3.55,9.68,6.51,13.93a42,42,0,0,0,3.65,4l-1.44.09c-4.56-3.38-7.39-8.08-9.8-13.06-.76-1.58-1.41-3.37,0-5.06Z"/><path class="cls-91" d="M92.6,277.24a2.68,2.68,0,0,1,.8.06c.34,2-.64,2.89-2.57,3.37-2.84.69-5.59,1.71-8.38,2.59-1.29-3.1,1.73-3.1,3.08-4.3C88,278.73,90.57,279.17,92.6,277.24Z"/><path class="cls-92" d="M118.16,255.34a4.3,4.3,0,0,1-3,2.94,1.26,1.26,0,0,1-1.59-1.74c.52-1.58,1.43-3,3.36-3.19C117.83,253.27,118.47,253.71,118.16,255.34Z"/><path class="cls-93" d="M85.47,279.77c-1.33.89-3.07,1.41-3,3.49-1.33,1.08-1.13-1-2-.95,1.22-1.86,2.57-3.56,5-3.76a.78.78,0,0,1,.26.82C85.65,279.64,85.56,279.77,85.47,279.77Z"/><path class="cls-88" d="M54.42,235.59c-1-.45-1.8-1-.65-2.11,5.37-5.12,6.82-11.53,6-18.6-.21-1.81.33-2.74,2-2.39a17.6,17.6,0,0,0,12.13-1.66c-.9,4.55.39,8.64-3.31,11.44-.65.49-1.33,1.66-1.78,1.55-2.24-.52-3.29-.57-3.4,2.47-.1,2.68.61,4.09,2.94,5C66.07,236.25,61.5,237.68,54.42,235.59Z"/><path class="cls-94" d="M54.42,235.59c5.23.41,10.42.74,13.93-4.35l.87,1c-3.55,5.07-9,6.53-15.86,4.22Z"/><path class="cls-95" d="M90.43,277.3c-4.37-1.32-8.75-3.42-12.3,1.78-.81,1.19-2.69.79-4.22.62-4.94-.55-9.65-2.05-14.4-3.38-5-1.4-8-4.36-8.12-9.75l.86-1.2c.75,6.05,4.34,9.21,10.19,10.31,3.23.6,6.37,1.73,9.6,2.32,1.87.34,4.16,1.16,5.63-.65C81.6,272.52,86,274,90.5,276.1a.76.76,0,0,1,.22.82C90.62,277.17,90.52,277.3,90.43,277.3Z"/><path class="cls-96" d="M135.51,387.77c1.81,4.31,3,8.86,5,13.14-3.45-3.21-4.75-7.53-5.94-11.91C134.8,388.53,134.85,387.92,135.51,387.77Z"/><path class="cls-97" d="M135.51,387.77l-.93,1.23a35.76,35.76,0,0,1-.5-16.68C134,377.54,135.1,382.62,135.51,387.77Z"/><path class="cls-98" d="M275.11,72a11.13,11.13,0,0,1-10.8-10.74,8.52,8.52,0,0,1,8.38-8.6,11.17,11.17,0,0,1,11,10.53A8.28,8.28,0,0,1,275.11,72Z"/><path class="cls-99" d="M90.43,277.3l.07-1.2c.94-.05,1.77.08,2.1,1.14-1.32,3.83-4.92,1.21-7.13,2.53,0-.41,0-.81,0-1.22C87,277.64,89.18,279.3,90.43,277.3Z"/><path class="cls-100" d="M181.1,374c3.27,2.08,6.45,4.29,9.82,6.19s6.66,3.31,10.13,5C196.19,385.63,186.35,380.52,181.1,374Z"/><path class="cls-101" d="M211.07,385.35c-3.26,2.17-5.68,2.12-9.16.84C205.12,384.7,207.56,385,211.07,385.35Z"/></g></g></svg>